<?xml version="1.0" encoding="UTF-8" standalone="no"?>
<svg
   xmlns:dc="http://purl.org/dc/elements/1.1/"
   xmlns:cc="http://creativecommons.org/ns#"
   xmlns:rdf="http://www.w3.org/1999/02/22-rdf-syntax-ns#"
   xmlns:svg="http://www.w3.org/2000/svg"
   xmlns="http://www.w3.org/2000/svg"
   xmlns:sodipodi="http://sodipodi.sourceforge.net/DTD/sodipodi-0.dtd"
   xmlns:inkscape="http://www.inkscape.org/namespaces/inkscape"
   width="424pt"
   height="420pt"
   viewBox="0 0 424 420"
   version="1.1"
   id="svg2"
   inkscape:version="0.91 r13725"
   sodipodi:docname="BTC.svg">
  <metadata
     id="metadata176">
    <rdf:RDF>
      <cc:Work
         rdf:about="">
        <dc:format>image/svg+xml</dc:format>
        <dc:type
           rdf:resource="http://purl.org/dc/dcmitype/StillImage" />
      </cc:Work>
    </rdf:RDF>
  </metadata>
  <defs
     id="defs174" />
  <sodipodi:namedview
     pagecolor="#ffffff"
     bordercolor="#666666"
     borderopacity="1"
     objecttolerance="10"
     gridtolerance="10"
     guidetolerance="10"
     inkscape:pageopacity="0"
     inkscape:pageshadow="2"
     inkscape:window-width="840"
     inkscape:window-height="1321"
     id="namedview172"
     showgrid="false"
     inkscape:zoom="0.63572267"
     inkscape:cx="316.33818"
     inkscape:cy="266.05516"
     inkscape:window-x="-8"
     inkscape:window-y="-8"
     inkscape:window-maximized="1"
     inkscape:current-layer="svg2" />
  <path
     d="m 117.14884,27.270807 c 26.26928,-14.000471 55.71894,-21.6514966 85.31573,-23.4057989 8.53384,0.3621784 17.21481,-0.7583119 25.65809,0.656449 -4.02923,2.2862529 -8.77151,1.8335292 -13.21952,1.9014381 -10.65031,-0.3055885 -21.33459,0.6904028 -31.78118,2.7502938 18.83329,0.384816 37.75713,-1.12049 56.52252,0.667767 12.33671,3.270927 25.30723,5.183683 36.72718,11.136997 -9.42796,-1.414761 -18.09762,-5.760906 -27.52558,-7.153031 -7.91134,-1.233671 -15.73214,-3.225654 -23.7793,-3.463334 -9.50719,-0.215043 -19.03702,-0.192407 -28.49894,0.826221 -16.88658,0.09054 -33.2299,4.991275 -49.22235,9.959914 -10.42396,4.357463 -21.67413,6.85876 -31.419,12.7668 -5.91936,3.576515 -12.66494,5.806178 -17.961802,10.378685 -3.123795,2.727658 -7.1304,4.063192 -10.435274,6.485262 -8.533838,7.288846 -16.637587,15.053053 -24.594201,22.964395 -3.950011,3.621787 -7.922659,7.424663 -10.197595,12.381985 -3.83683,8.771515 -11.929261,15.00778 -14.634283,24.36784 -6.202311,9.65432 -10.740863,20.25937 -14.883282,30.93232 -4.561188,9.48456 -6.3834,19.98774 -8.420655,30.24193 -2.150436,12.23484 -3.452016,24.65079 -3.021929,37.08937 0.690403,11.70289 1.867483,23.36052 2.920066,35.04078 0.53195,7.66235 3.995284,14.65693 6.100448,21.94577 2.320207,8.20561 5.047865,16.28673 8.013204,24.27729 1.89012,3.56519 5.127092,6.3155 6.507899,10.20891 2.976656,7.42467 8.556473,13.28744 12.52912,20.1462 2.501297,4.42537 6.960622,7.79815 7.764206,13.07238 -1.788257,-1.46003 -3.474652,-3.02193 -5.127092,-4.61778 0.464041,1.64112 0.746994,3.32753 0.679085,5.04787 C 23.910456,300.3762 9.253536,257.33352 7.5897775,214.40402 8.1443637,206.51532 7.0012374,198.55871 8.4725882,190.73791 10.272164,169.72023 15.32003,148.89495 23.548278,129.40521 41.668532,85.88717 75.43038,49.159984 117.14884,27.270807 Z"
     id="path8"
     inkscape:connector-curvature="0"
     style="fill:#9a7314" />
  <path
     d="m 228.12266,4.5214571 c 30.77387,2.3541619 60.78944,12.2801219 87.7378,27.4010829 17.36194,10.661636 33.75053,23.088894 48.02264,37.677905 l -0.0226,0.158454 c -0.96203,3.270926 2.32021,5.183682 3.99529,7.458618 26.60881,31.815143 42.52204,72.118833 45.98538,113.373263 1.24498,20.70077 0.18108,41.65055 -4.6291,61.87597 -6.98326,32.21126 -22.43245,62.43055 -43.93681,87.3643 -12.2688,14.99646 -27.44635,27.29921 -43.33695,38.25512 -40.13393,26.09951 -89.58264,38.04009 -137.14123,31.52087 -3.07853,-0.53195 -6.27022,-0.73568 -9.24688,0.41877 -24.18675,-4.54987 -47.30959,-14.17025 -68.42914,-26.73332 -21.379862,-12.94789 -40.858288,-29.48361 -55.956614,-49.41476 0.06791,-1.72034 -0.215043,-3.40675 -0.679085,-5.04787 1.652441,1.59585 3.338835,3.15775 5.127093,4.61778 6.836123,7.31148 13.196887,15.13229 20.678141,21.79863 7.843435,4.83283 14.60033,11.14832 22.296629,16.19618 8.499886,5.35346 17.045036,10.74087 26.416406,14.46452 15.49447,7.53784 32.17732,12.43857 49.07522,15.59632 0.91677,0.0226 2.73898,0.0566 3.65574,0.0679 6.11177,2.29757 12.71021,0.57722 18.96911,1.99198 16.50177,1.53926 32.92431,-0.92808 49.33553,-2.17307 9.98256,-2.69371 20.06697,-5.04786 29.75524,-8.71493 5.24028,-2.20702 11.02383,-3.16906 15.73215,-6.53053 7.56048,-3.73497 14.81537,-8.00189 22.26267,-11.96322 12.3933,-7.9453 23.70007,-17.47512 34.11271,-27.86512 3.02192,-3.0672 6.43999,-5.84013 8.60174,-9.63169 11.83872,-12.12168 21.17614,-26.56354 28.53289,-41.77505 5.21764,-8.90733 7.60576,-19.05966 10.97855,-28.72531 3.73497,-14.44187 10.20891,-28.61212 9.49588,-43.82362 -0.20373,-19.64819 1.6977,-39.76043 -3.72366,-58.89932 -4.51591,-21.10822 -13.11766,-41.19783 -24.25465,-59.63498 -3.28225,-4.75359 -5.90804,-9.925963 -9.02051,-14.792742 C 358.67678,76.719521 347.96987,65.095848 336.40279,54.377621 326.28441,46.681323 316.0755,39.007662 304.79137,33.076986 296.18962,27.236853 286.18444,24.113062 276.37166,20.977953 264.95171,15.024639 251.98119,13.111883 239.64448,9.840956 220.87909,8.052699 201.95525,9.558005 183.12196,9.173189 c 10.44659,-2.059891 21.13087,-3.0558823 31.78118,-2.7502938 4.44801,-0.06791 9.19029,0.3848148 13.21952,-1.9014381 z"
     id="path10"
     inkscape:connector-curvature="0"
     style="fill:#835e05" />
  <path
     d="m 196.56784,11.187809 c 9.46192,-1.018628 18.99175,-1.041264 28.49894,-0.826221 8.04716,0.23768 15.86796,2.229663 23.7793,3.463334 9.42796,1.392125 18.09762,5.73827 27.52558,7.153031 9.81278,3.135109 19.81796,6.2589 28.41971,12.099033 11.28413,5.930676 21.49304,13.604337 31.61142,21.300635 11.56708,10.718227 22.27399,22.3419 32.10941,34.655976 3.11247,4.866779 5.73826,10.039143 9.02051,14.792743 11.13699,18.43715 19.73874,38.52676 24.25465,59.63498 5.42136,19.13889 3.51993,39.25112 3.72366,58.89931 0.71303,15.21151 -5.76091,29.38176 -9.49589,43.82363 -3.37278,9.66565 -5.7609,19.81798 -10.97854,28.72531 -7.35675,15.2115 -16.69417,29.65337 -28.53289,41.77505 -1.93539,1.44871 -3.89342,2.87479 -5.87409,4.26692 1.58454,-2.89744 3.53125,-5.6251 4.70833,-8.72625 -0.21504,-0.29427 -0.64513,-0.90544 -0.86017,-1.19971 -1.73168,1.05257 -3.36147,2.39942 -5.39873,2.79556 1.53926,-1.74299 3.04456,-3.53125 4.54987,-5.30818 9.21292,-10.85405 17.11295,-22.80594 23.66611,-35.43693 5.444,-10.48054 9.88069,-21.51567 13.17425,-32.86771 10.25419,-35.12002 10.1976,-73.28461 -0.52063,-108.28013 -6.6324,-21.76467 -17.21481,-42.35227 -31.22659,-60.280114 -3.30488,-4.210328 -6.7003,-8.352747 -10.39001,-12.223532 -4.39141,-4.878095 -9.2016,-9.348738 -14.03442,-13.77411 C 318.99556,52.37432 301.65626,41.339187 282.95879,33.518391 274.99085,30.179555 266.80788,27.293444 258.4325,25.165643 239.78029,20.174368 220.39241,17.967342 201.09507,19.167058 149.89206,21.419358 100.25093,46.104101 67.326631,85.35522 c -4.300873,4.979957 -8.318793,10.197594 -11.985852,15.65292 -1.629805,2.45602 -3.270928,4.90072 -4.810187,7.40201 -0.158453,-1.60716 -0.29427,-3.22565 -0.656448,-4.81017 -1.471352,-0.56591 -3.327517,-0.88282 -4.606462,0.27163 -2.433388,2.16175 -4.448007,4.77623 -7.164347,6.62108 2.705022,-9.36006 10.797453,-15.596325 14.634283,-24.36784 2.274936,-4.957322 6.247584,-8.760198 10.197595,-12.381985 7.956614,-7.911342 16.060363,-15.675549 24.594201,-22.964395 3.304874,-2.42207 7.311479,-3.757604 10.435274,-6.485262 5.296862,-4.572507 12.042442,-6.80217 17.961802,-10.378685 9.74487,-5.90804 20.99504,-8.409337 31.419,-12.7668 15.99245,-4.968639 32.33577,-9.86937 49.22235,-9.959914 z"
     id="path12"
     inkscape:connector-curvature="0"
     style="fill:#ab8324" />
  <path
     d="m 201.09507,19.167058 c 19.29734,-1.199716 38.68522,1.00731 57.33743,5.998585 -4.13111,3.916059 -10.03914,0.305589 -14.56638,3.067202 -8.47725,4.380098 -18.74275,2.342843 -27.07286,7.02853 -3.61046,2.003301 -5.12709,6.123084 -8.12638,8.782834 -7.61708,5.285546 -17.1469,7.164349 -24.4018,13.027117 -2.62579,1.935392 -5.48926,3.497288 -8.27352,5.195 C 154.0458,67.98196 133.15261,78.1456 115.7454,92.734613 106.72489,99.70655 99.503946,108.60257 92.067962,117.15904 c -1.211033,1.39212 -2.354156,2.84084 -3.463335,4.31218 -1.844842,-3.68969 -6.111763,-4.65172 -9.111055,-7.06247 -2.976657,-2.36549 -5.545862,-5.43269 -9.337421,-6.50791 -4.119782,-1.27894 -7.97925,-4.50459 -12.495165,-3.29356 -0.916766,-1.10917 -1.595851,-2.3768 -2.320207,-3.59914 3.667059,-5.455326 7.684979,-10.672963 11.985852,-15.65292 4.232963,1.290262 9.507191,2.399434 13.128978,-0.905447 4.583829,-4.448007 8.488568,-9.824098 14.147609,-13.027115 5.149728,-0.916766 10.514502,-1.358171 14.985142,-4.402736 2.45603,-0.860175 2.7503,-3.621788 3.99528,-5.55718 2.88612,-1.041263 5.86278,-1.867484 8.83943,-2.648432 3.41806,-0.928082 6.80217,0.396134 10.15232,0.95072 5.96463,-4.78755 7.80947,-13.264796 14.23816,-17.644895 5.47795,-1.731667 11.5218,-0.18109 16.96581,-2.207027 6.20231,-2.433388 11.7708,-6.123083 17.15821,-9.971233 5.693,-2.365479 12.05376,-2.1278 17.97311,-3.712331 2.16176,-0.430088 3.47466,-2.399435 4.57252,-4.142419 -0.75832,-1.00731 -1.55059,-1.980665 -2.38813,-2.920067 z"
     id="path14"
     inkscape:connector-curvature="0"
     style="fill:#ffd975" />
  <path
     d="M 67.326631,85.35522 C 100.25093,46.104101 149.89206,21.419358 201.09507,19.167058 c 0.83754,0.939402 1.62981,1.912757 2.38813,2.920067 -1.09786,1.742984 -2.41076,3.712331 -4.57252,4.142419 -5.91935,1.584531 -12.28011,1.346852 -17.97311,3.712331 -5.38741,3.84815 -10.9559,7.537845 -17.15821,9.971233 -5.44401,2.025937 -11.48786,0.47536 -16.96581,2.207027 -6.42869,4.380099 -8.27353,12.857345 -14.23816,17.644895 -3.35015,-0.554586 -6.73426,-1.878802 -10.15232,-0.95072 -2.97665,0.780948 -5.95331,1.607169 -8.83943,2.648432 -1.24498,1.935392 -1.53925,4.697005 -3.99528,5.55718 -4.47064,3.044565 -9.835414,3.48597 -14.985142,4.402736 -5.659041,3.203017 -9.56378,8.579108 -14.147609,13.027115 -3.621787,3.304881 -8.896015,2.195709 -13.128978,0.905447 z"
     id="path16"
     inkscape:connector-curvature="0"
     style="fill:#f7cd69" />
  <path
     d="m 258.4325,25.165643 c 8.37538,2.127801 16.55835,5.013912 24.52629,8.352748 -2.26362,1.958028 -2.82953,4.855458 -3.72365,7.537844 -4.6291,6.043858 -12.00849,8.839425 -18.7088,11.906626 -5.70431,2.682386 -12.20089,3.203017 -17.69017,6.372082 5.45532,3.214336 12.58571,2.863475 17.28272,7.368073 -3.5652,-0.973356 -7.06249,-2.139118 -10.639,-3.055883 -10.53713,-2.89743 -21.35723,-5.047866 -32.32445,-4.991275 -8.70361,0.05659 -17.49776,-0.41877 -26.11082,1.075217 -5.05919,0.633813 -9.98256,2.01462 -15.05306,2.535251 2.78426,-1.697712 5.64773,-3.259608 8.27352,-5.195 7.2549,-5.862768 16.78472,-7.741571 24.4018,-13.027117 2.99929,-2.65975 4.51592,-6.779533 8.12638,-8.782834 8.33011,-4.685687 18.59561,-2.648432 27.07286,-7.02853 4.52724,-2.761613 10.43527,0.848857 14.56638,-3.067202 z"
     id="path18"
     inkscape:connector-curvature="0"
     style="fill:#f6ce69" />
  <path
     d="m 279.23514,41.056235 c 0.89412,-2.682386 1.46003,-5.579816 3.72365,-7.537844 18.69747,7.820796 36.03677,18.855929 51.33883,32.132043 -6.02122,1.00731 -11.52181,3.757605 -17.40721,5.262909 -6.36077,1.675077 -12.31408,5.466635 -19.10493,5.081821 -4.31219,-3.282245 -6.3834,-8.737562 -10.71823,-11.974534 -7.34544,-2.750295 -16.53572,-3.044565 -23.20207,1.188399 0.6904,1.346852 1.8222,2.388115 2.82952,3.497288 -0.75832,-0.06791 -2.27493,-0.203726 -3.03325,-0.271634 -1.1884,-0.577222 -2.37679,-1.143127 -3.54256,-1.731667 -4.69701,-4.504598 -11.8274,-4.153737 -17.28272,-7.368073 5.48928,-3.169065 11.98586,-3.689696 17.69017,-6.372082 6.70031,-3.067201 14.0797,-5.862768 18.7088,-11.906626 z"
     id="path20"
     inkscape:connector-curvature="0"
     style="fill:#fbd272" />
  <path
     d="m 175.99156,62.266326 c 5.0705,-0.520631 9.99387,-1.901438 15.05306,-2.535251 8.61306,-1.493987 17.40721,-1.018628 26.11082,-1.075217 10.96722,-0.0566 21.78732,2.093845 32.32445,4.991275 -1.02995,2.625795 -2.96534,5.251591 -2.1278,8.205612 0.9394,3.825512 2.48998,7.549162 2.36548,11.555765 -1.59585,-3.418062 -3.03324,-7.345438 -6.49658,-9.314784 -3.01061,-2.059892 -6.77953,-1.935394 -10.23155,-2.48998 -3.66706,-0.384814 -7.25489,-1.403442 -10.94459,-1.641121 -5.84013,-0.339544 -11.40862,2.637113 -17.26008,1.89012 -2.24098,-2.127801 -3.1917,-5.195001 -5.02522,-7.62839 -2.43339,-1.290262 -4.90074,0.124499 -7.15303,1.0639 -3.90474,1.924075 -8.42066,0.916765 -12.47253,2.274935 -4.33483,1.335534 -9.32611,2.014619 -12.42727,5.670361 -3.18038,3.610468 -6.97194,6.688988 -9.81278,10.582409 -3.19169,4.3801 -3.48596,9.948596 -4.54986,15.07569 -5.3761,-5.206318 -7.40203,-12.94789 -13.0158,-17.905211 -1.33554,1.041264 -3.05589,2.093846 -3.36147,3.893422 0.32822,3.146427 -3.65574,3.859467 -5.67037,5.3195 -2.17306,1.607167 -4.74227,0.02264 -7.10775,0.04527 -2.88612,0.565905 -5.59114,1.788258 -8.44329,2.489981 17.40721,-14.589014 38.3004,-24.752653 60.24616,-30.468287 z"
     id="path22"
     inkscape:connector-curvature="0"
     style="fill:#cca041" />
  <path
     d="m 263.86518,65.209029 c 6.66635,-4.232964 15.85663,-3.938694 23.20207,-1.188399 4.33483,3.236972 6.40604,8.692289 10.71823,11.974534 6.79085,0.384814 12.74416,-3.406744 19.10493,-5.081821 5.8854,-1.505304 11.38599,-4.255599 17.40721,-5.262909 4.83282,4.425372 9.64301,8.896015 14.03442,13.77411 -4.02923,0.860173 -7.31148,3.497287 -11.14831,4.798868 -7.03985,0.973355 -12.24617,-6.473945 -19.30865,-4.923367 -5.57982,0.769629 -11.10305,1.958028 -16.54704,3.384107 -1.50531,0.328224 -2.38812,1.675076 -3.45201,2.625796 -5.44401,-4.221646 -11.46523,-7.594436 -17.7694,-10.34473 -4.42538,-2.173072 -8.8281,-4.414053 -13.41193,-6.258901 -1.00732,-1.109173 -2.13912,-2.150436 -2.82952,-3.497288 z"
     id="path24"
     inkscape:connector-curvature="0"
     style="fill:#ffe289" />
  <path
     d="m 192.60652,65.288255 c 2.25229,-0.939401 4.71964,-2.354162 7.15303,-1.0639 1.83352,2.433389 2.78424,5.500589 5.02522,7.62839 5.85146,0.746993 11.41995,-2.229664 17.26008,-1.89012 3.6897,0.237679 7.27753,1.256307 10.94459,1.641121 3.45202,0.554586 7.22094,0.430088 10.23155,2.48998 3.46334,1.969346 4.90073,5.896722 6.49658,9.314784 1.25631,5.659041 3.6897,11.04645 4.07451,16.87527 0.15846,5.18368 2.56921,9.88069 4.18769,14.70219 6.05518,5.27422 14.41924,6.53054 21.48173,10.0165 9.95991,4.92337 18.92384,13.04976 22.51167,23.83588 3.61047,10.94459 4.52723,23.25867 0.31691,34.19195 -0.56591,1.83353 -1.5619,3.84814 -0.78095,5.76089 1.1884,2.75031 0.22635,5.78355 0.43008,8.65835 0.91677,4.47064 4.57251,7.52652 7.23226,11.00117 3.1917,3.88211 4.68569,8.77152 7.31149,13.00449 1.65244,2.84083 3.96132,5.5119 4.24428,8.92996 1.29025,9.52983 2.27493,19.38788 0.0792,28.86112 -1.0639,4.31218 -1.30158,8.8281 -2.90875,13.00448 -0.63381,2.09384 -1.91275,4.21032 -1.30157,6.46263 5.21763,5.3195 13.06107,7.3907 17.56566,13.46852 -4.09714,5.87408 -8.66965,11.3973 -13.45721,16.71681 -3.96132,4.1311 -8.05847,8.1377 -12.41593,11.85003 -9.08842,-4.448 -19.60292,-4.15374 -29.46097,-5.11577 -4.10847,-0.97336 -6.77954,-4.49328 -10.09574,-6.79085 -1.58454,-0.57722 -3.29356,0.28295 -4.49328,1.30157 -4.5046,3.70102 -6.23626,9.74487 -10.98985,13.21954 0.83753,-3.6218 2.94269,-6.79087 3.72364,-10.42396 -5.03654,5.91935 -8.90733,13.42325 -16.09431,17.06767 1.35817,-3.07853 3.79155,-5.43268 5.8854,-8.00189 3.5086,-4.32351 3.81419,-10.20892 6.58712,-14.91724 2.84084,-4.11977 7.42467,-7.13039 12.48386,-7.51521 13.38928,-2.01462 27.58216,-6.07781 36.70454,-16.76208 5.444,-5.26291 7.34544,-12.75548 10.141,-19.5237 4.8781,-14.32869 5.43268,-31.06813 -2.50129,-44.4348 -3.1917,-7.03985 -9.97123,-11.68026 -12.90262,-18.84461 -0.55458,-3.78024 -0.47536,-7.62839 -0.83754,-11.43126 1.14313,-4.42538 3.64443,-8.43198 4.34614,-13.00449 1.8109,-10.49185 0.57723,-21.7194 -4.43668,-31.20395 -3.32751,-6.31549 -8.99788,-10.89932 -14.80406,-14.83802 -5.82881,-3.82551 -12.66493,-5.50058 -19.08229,-8.00188 -2.51261,-1.02994 -5.37609,-1.96935 -6.64371,-4.58383 -2.46735,-4.42537 -6.97194,-7.94529 -7.2549,-13.34401 -1.07521,-8.047166 -2.39943,-17.169542 -8.72624,-22.907811 -7.17567,-4.54987 -16.083,-2.738977 -24.0962,-2.546569 -3.55388,-0.101865 -7.3228,1.505305 -10.68427,-0.06791 -11.19359,-5.772224 -25.66943,-3.836832 -35.48221,3.848148 -2.89742,3.610469 -4.18768,8.250884 -5.44399,12.630985 -1.30158,4.334827 0.64513,10.141007 -3.96133,12.947887 -7.27753,1.78826 -14.92856,1.47135 -22.3419,2.52394 -5.56849,2.15043 -12.74416,3.65573 -14.93987,10.05045 -3.89343,6.75689 -0.14714,14.13629 1.36948,20.9611 -2.94269,-2.77293 -3.66705,-6.98327 -6.03253,-10.06178 -0.3735,-0.0905 -1.1205,-0.27163 -1.49399,-0.3735 -0.46405,0.49799 -1.38081,1.49399 -1.84484,1.99198 -6.41736,-6.80216 -17.135589,-7.79815 -22.81727,-15.43787 7.435984,-8.55646 14.65692,-17.45248 23.67743,-24.424419 2.85216,-0.701723 5.55718,-1.924076 8.4433,-2.489981 2.36547,-0.02264 4.93468,1.561896 7.10775,-0.04527 2.01463,-1.460033 5.99859,-2.173073 5.67037,-5.3195 0.30558,-1.799576 2.02593,-2.852158 3.36147,-3.893422 5.61377,4.957321 7.6397,12.698893 13.0158,17.905212 1.0639,-5.127095 1.35817,-10.695591 4.54986,-15.075691 2.84084,-3.893421 6.6324,-6.971941 9.81278,-10.582409 3.10116,-3.655742 8.09244,-4.334827 12.42726,-5.670361 4.05188,-1.35817 8.5678,-0.35086 12.47254,-2.274935 z"
     id="path26"
     inkscape:connector-curvature="0"
     style="fill:#bf9338" />
  <path
     d="m 249.47989,63.647133 c 3.57651,0.916765 7.0738,2.082527 10.639,3.055883 1.16577,0.58854 2.35416,1.154445 3.54256,1.731667 0.58854,0.486677 1.17708,0.984674 1.76562,1.493987 -3.91606,0.53195 -7.18699,3.01061 -9.08842,6.417354 -0.58854,6.779533 2.55788,13.117661 4.0066,19.602924 0,3.361472 -0.33954,6.756892 0.58854,10.039142 -0.79227,2.32021 -1.85617,4.73096 -1.33553,7.24358 5.64772,5.37608 13.94388,5.93067 20.57628,9.60905 9.68828,5.02523 19.00306,12.50648 23.11153,22.9078 2.71633,7.52653 4.1311,15.44919 4.60646,23.42844 0.0452,6.46262 -2.70503,12.40462 -4.49328,18.48243 0.57722,0.18109 1.73166,0.56591 2.30888,0.75831 0.32823,3.11247 -0.0452,6.27022 0.5546,9.34874 1.39212,3.90474 4.86677,6.40604 7.59443,9.31479 4.3801,4.70832 6.4513,10.94459 9.7675,16.35463 0.81491,1.66375 2.80689,1.91275 4.40274,2.37679 9.68829,2.02595 19.64819,3.06721 29.13275,5.89673 -0.0905,3.3841 -0.72435,6.73426 -0.99599,10.10705 -0.96203,6.89272 -3.32752,13.50248 -5.81749,19.97642 -1.47136,3.39542 -2.89744,6.81349 -4.57252,10.11836 -2.20702,-3.24829 -6.19098,-1.13181 -9.08842,-0.29427 -4.50459,1.85617 -10.49186,1.51663 -14.0231,-2.05989 -1.39212,-3.21433 -1.24499,-6.90402 -1.85617,-10.31077 2.19571,-9.47324 1.21103,-19.33129 -0.0792,-28.86112 -0.28296,-3.41806 -2.59184,-6.08913 -4.24428,-8.92996 -2.6258,-4.23297 -4.11978,-9.12238 -7.31149,-13.00449 -2.65975,-3.47465 -6.31549,-6.53053 -7.23225,-11.00117 -0.20373,-2.8748 0.75831,-5.90804 -0.43009,-8.65835 -0.78095,-1.91275 0.21504,-3.92736 0.78095,-5.76089 4.21033,-10.93328 3.29356,-23.24736 -0.31691,-34.19195 -3.58783,-10.78612 -12.55175,-18.91251 -22.51167,-23.83588 -7.06249,-3.48596 -15.42655,-4.74228 -21.48173,-10.0165 -1.61848,-4.8215 -4.02923,-9.51851 -4.18769,-14.70219 -0.38481,-5.82882 -2.8182,-11.216229 -4.07451,-16.87527 0.1245,-4.006603 -1.42607,-7.730253 -2.36548,-11.555765 -0.83754,-2.954021 1.09786,-5.579817 2.1278,-8.205612 z"
     id="path28"
     inkscape:connector-curvature="0"
     style="fill:#d1a44b" />
  <path
     d="m 263.66145,68.434683 c 0.75832,0.06791 2.27493,0.203726 3.03325,0.271634 4.58383,1.844848 8.98655,4.085829 13.41193,6.258901 -1.59585,3.055883 -3.38411,6.009903 -5.22896,8.918651 -4.1311,6.417355 -7.83211,13.095021 -11.71422,19.659511 -0.73567,0.82623 -1.48266,1.64112 -2.22966,2.44471 -0.92808,-3.28225 -0.58854,-6.67767 -0.58854,-10.039142 -1.44872,-6.485263 -4.59514,-12.823391 -4.0066,-19.602924 1.90143,-3.406744 5.17236,-5.885404 9.08842,-6.417354 -0.58854,-0.509313 -1.17708,-1.00731 -1.76562,-1.493987 z"
     id="path30"
     inkscape:connector-curvature="0"
     style="fill:#e2ba64" />
  <path
     d="m 367.85575,77.217517 c -1.67508,-2.274936 -4.95733,-4.187692 -3.99529,-7.458618 46.16646,47.207731 66.4032,118.024991 52.26691,182.481481 -9.40532,45.64584 -35.15397,87.72649 -71.54161,116.83659 -46.47206,37.91559 -110.38528,53.76091 -169.0356,40.94884 2.97666,-1.15445 6.16835,-0.95072 9.24688,-0.41877 47.55859,6.51922 97.0073,-5.42136 137.14123,-31.52087 15.8906,-10.95591 31.06815,-23.25866 43.33695,-38.25512 21.50436,-24.93375 36.95355,-55.15304 43.93681,-87.3643 4.81018,-20.22542 5.87408,-41.1752 4.62909,-61.87597 -3.46333,-41.25443 -19.37656,-81.55812 -45.98537,-113.373263 z"
     id="path32"
     inkscape:connector-curvature="0"
     style="fill:#715104" />
  <path
     d="m 169.57421,81.92584 c 9.81278,-7.68498 24.28861,-9.620372 35.4822,-3.848148 3.36147,1.573213 7.13039,-0.03396 10.68427,0.06791 8.0132,-0.192408 16.92053,-2.003301 24.0962,2.546569 6.32681,5.738269 7.65103,14.860645 8.72624,22.907809 0.28296,5.39873 4.78755,8.91865 7.2549,13.34401 1.26763,2.61449 4.1311,3.55389 6.64371,4.58383 6.41736,2.5013 13.25348,4.17637 19.0823,8.00189 5.80617,3.93869 11.47654,8.52252 14.80405,14.83801 5.01391,9.48455 6.24758,20.7121 4.43669,31.20396 -0.70172,4.5725 -3.20301,8.5791 -4.34615,13.00448 0.36218,3.80288 0.28296,7.65102 0.83754,11.43127 2.93139,7.16434 9.71092,11.80475 12.90262,18.8446 7.93398,13.36667 7.37939,30.10611 2.50129,44.43481 -2.79556,6.76822 -4.69699,14.26079 -10.141,19.52369 -9.12238,10.68428 -23.31526,14.74747 -36.70454,16.76208 -5.05919,0.38482 -9.64302,3.39544 -12.48386,7.51521 -2.77293,4.70832 -3.07851,10.59374 -6.58712,14.91724 -2.09385,2.56921 -4.52723,4.92337 -5.8854,8.00189 -0.28295,0.14714 -0.83754,0.44141 -1.12049,0.58854 -0.26032,-2.60317 -0.23769,-5.21764 -0.18109,-7.8208 2.12779,-5.42136 3.0672,-11.35204 6.45131,-16.2075 2.77293,-4.75359 7.31148,-8.40933 12.64229,-9.88069 9.43929,-2.68238 19.44448,-4.19901 27.92172,-9.4506 6.92667,-3.67837 13.34402,-8.69229 17.45249,-15.4605 6.07781,-11.27281 8.48856,-24.37915 7.17566,-37.10068 -0.76963,-5.70431 -2.27493,-11.56708 -5.80618,-16.21882 -0.50931,0.0226 -1.5053,0.0679 -2.0033,0.0905 -1.08653,-1.52795 -2.12779,-3.0672 -3.14642,-4.6291 0.72436,-3.76892 -3.32752,-5.64773 -5.12709,-8.37539 -5.04787,-5.76089 -4.13111,-14.19288 -1.25631,-20.73473 6.06649,-13.19688 5.14972,-29.25725 -2.01462,-41.84296 -1.91275,-3.40674 -4.49328,-7.13039 -8.72624,-7.59443 -9.34874,-8.11507 -21.36855,-12.03112 -33.38835,-14.03442 0.64512,-0.23769 1.93539,-0.70173 2.58051,-0.92809 -3.5086,-3.62179 -7.91133,-6.5079 -10.4579,-10.96722 -0.97336,-4.71965 -0.12451,-9.66565 -1.40345,-14.351339 -1.79957,8.239569 -1.08653,16.784719 -0.92808,25.160109 l -0.80358,-0.18109 c 0.1924,-12.65362 -0.0226,-25.318559 0.20373,-37.972177 -7.44731,0.01131 -14.88328,0 -22.31927,0.01131 l -0.43009,0.667767 c -0.83754,1.324216 -1.61848,2.682386 -2.55788,3.938693 -2.20704,0.497997 -4.51592,0.452724 -6.7569,0.169772 -2.73897,-0.803584 -4.66305,-3.089837 -6.94931,-4.674369 -7.58312,-0.23768 -15.17755,-0.01131 -22.77198,-0.113181 -1.46004,0.362179 -1.40344,2.116482 -2.00331,3.203018 -0.87149,2.637113 -2.38811,4.957321 -3.64442,7.402028 -2.45602,4.708319 -0.35086,10.514499 -3.12379,15.120959 -1.89012,2.68238 -4.32351,5.63641 -7.84343,5.94199 -10.36736,1.4374 -21.28932,1.29027 -30.89837,5.99859 -0.3735,0.20373 -1.13181,0.62251 -1.51663,0.82622 -1.8788,1.19972 -2.13911,3.53125 -2.29756,5.55719 -0.32823,5.51191 -0.28296,11.30676 2.37679,16.29803 0.0679,0.55458 0.19241,1.67507 0.26032,2.22966 1.46003,0.31691 2.95402,0.33955 4.44801,0.41877 4.48196,3.83683 10.54845,4.76491 15.38127,8.02453 3.96133,2.27493 5.89672,6.76821 7.16435,10.9559 0.90544,5.03655 0.54326,10.19759 0.66777,15.29073 -0.12451,11.45391 0.62249,22.89649 0.0905,34.33907 -1.85617,-4.85546 -0.70172,-10.10705 -1.23367,-15.1436 -1.31289,-11.12567 -0.89413,-22.36453 -1.83353,-33.52417 -0.40745,-2.79556 -1.90144,-5.35344 -3.89342,-7.32279 -7.63971,-6.54186 -19.07097,-8.05848 -25.00166,-16.67154 -1.51661,-6.82481 -5.2629,-14.2042 -1.36948,-20.9611 2.19571,-6.39471 9.37138,-7.90002 14.93987,-10.05045 7.41334,-1.05259 15.06437,-0.73568 22.34191,-2.52393 4.60645,-2.80689 2.65975,-8.61306 3.96132,-12.947891 1.25631,-4.380102 2.54657,-9.020516 5.444,-12.630986 z"
     id="path34"
     inkscape:connector-curvature="0"
     style="fill:#a27c27" />
  <path
     d="m 280.10663,74.965218 c 6.30417,2.750294 12.32539,6.123084 17.7694,10.34473 2.38811,1.912756 4.69699,3.916057 7.1417,5.760904 12.30277,10.786138 23.82457,22.658808 32.91299,36.331058 3.45202,6.3834 7.2549,12.58571 10.27683,19.18415 4.96863,12.0198 9.42796,24.43574 10.80876,37.44023 -0.86016,-1.72035 -1.70903,-3.45202 -2.7616,-5.04788 -3.04457,0.45273 -5.90804,1.58454 -8.79415,2.5579 l -1.19972,-0.27164 c -2.24099,-6.98325 -4.23296,-14.05706 -7.15303,-20.79132 -3.01062,-6.57581 -2.8748,-14.19288 -6.64372,-20.45178 -4.7536,-7.83212 -7.70762,-16.95449 -14.53242,-23.36052 -7.27753,-9.22424 -15.82268,-18.30135 -27.09549,-22.443775 -6.11177,-2.003291 -11.70291,-5.489266 -15.95851,-10.333406 1.84485,-2.908748 3.63311,-5.862768 5.22896,-8.918651 z"
     id="path36"
     inkscape:connector-curvature="0"
     style="fill:#edc162" />
  <path
     d="m 317.87508,79.300045 c 7.06248,-1.550578 12.2688,5.896722 19.30865,4.923367 3.83683,-1.301581 7.11908,-3.938695 11.14831,-4.798868 3.68971,3.870785 7.08513,8.013204 10.39001,12.223532 -0.8715,4.108468 0.49799,8.137704 1.29026,12.132994 0.91677,6.17967 -1.79958,12.0198 -3.27093,17.87124 -1.9467,9.29216 -5.44399,18.32399 -4.90072,27.97831 -1.25632,-0.96203 -2.45604,-1.99197 -3.63311,-3.04456 -3.02193,-6.59844 -6.82481,-12.80075 -10.27683,-19.18415 1.35818,1.27894 2.70503,2.58052 4.21034,3.67838 4.25559,-5.76091 4.17636,-13.11767 6.31549,-19.68216 1.10916,-6.14572 2.04857,-14.634283 -4.90073,-17.712798 -3.5652,0.192404 -6.85876,2.444706 -10.4466,2.105167 -5.86276,-2.297572 -10.78613,-6.428677 -16.33199,-9.326107 -3.88211,-1.177081 -8.0698,-0.18109 -11.87268,0.837539 -0.12449,1.256307 -0.0114,2.512614 0.11318,3.768921 -2.44471,-1.844847 -4.75359,-3.848148 -7.1417,-5.760904 1.06389,-0.95072 1.9467,-2.297572 3.45201,-2.625796 5.44399,-1.426079 10.96722,-2.614478 16.54704,-3.384107 z"
     id="path38"
     inkscape:connector-curvature="0"
     style="fill:#ffee92" />
  <path
     d="m 175.15402,85.29863 c 0.59987,-1.086536 0.54327,-2.84084 2.00331,-3.203018 0.18108,12.551753 0.0792,25.103508 0.24899,37.655268 -15.91322,0.22636 -31.83777,-0.034 -47.76231,0.0114 9.60905,-4.70832 20.53101,-4.56118 30.89837,-5.99859 3.51992,-0.30558 5.95331,-3.2596 7.84343,-5.94199 2.77293,-4.60646 0.66777,-10.41264 3.12379,-15.12096 1.25631,-2.444708 2.77293,-4.764915 3.64442,-7.402028 z"
     id="path40"
     inkscape:connector-curvature="0"
     style="fill:#8f6a17" />
  <path
     d="m 177.15733,82.095612 c 7.59443,0.101865 15.18886,-0.124499 22.77198,0.113181 0,1.301579 0,2.603159 0.0114,3.904739 -0.0226,11.227538 -0.0679,22.455078 -0.0114,33.671298 5.43268,0.034 10.87668,0.034 16.30936,0 0.0566,-8.60174 0,-17.21481 0,-25.827869 0.0453,-3.723646 0.0226,-7.458615 -0.0452,-11.182264 l 0.43009,-0.667767 c 7.43599,-0.01132 14.87196,0 22.31927,-0.01132 -0.22637,12.653618 -0.0114,25.31855 -0.20373,37.97217 l 0.80359,0.18109 c 3.38411,0.498 6.80216,0.6904 10.20891,1.08654 12.0198,2.0033 24.03961,5.91935 33.38835,14.03442 9.7675,8.33012 12.74416,22.07026 11.49917,34.37302 -1.19972,7.05118 -3.98396,13.94389 -8.72624,19.37656 -2.85215,3.54256 -6.73426,6.00991 -9.88069,9.24688 9.31478,2.80689 18.0863,7.88871 24.23202,15.55105 1.01863,1.56191 2.0599,3.10116 3.14642,4.6291 6.15705,10.46923 6.25891,23.42843 3.57652,34.97288 -3.32752,13.46853 -13.50248,24.44707 -25.6581,30.67201 -13.0837,6.73427 -27.93303,8.92998 -42.45413,9.76752 -0.11318,9.24687 0.16977,18.49374 0.0679,27.75193 -0.40746,3.36147 0.0226,6.73427 -0.0679,10.11838 -7.54916,-0.1019 -15.10964,0.14714 -22.64749,-0.11318 0,-0.47536 0,-1.42608 0,-1.90144 0,-3.23697 0.0792,-6.48526 0.0114,-9.72223 -0.0226,-8.6357 0.0792,-17.27141 0.0114,-25.89578 -5.444,-0.0114 -10.89932,-0.0226 -16.332,0 -0.0566,9.03183 0.034,18.06366 0.0226,27.0955 -0.0792,3.28224 -0.0114,6.5758 0.0453,9.85805 l -0.4414,0.67908 c -7.08512,0.0905 -14.18156,-0.1019 -21.278,0.1019 -0.26032,-0.18109 -0.79227,-0.52063 -1.05258,-0.70172 0.28295,-7.07381 0.21504,-14.15893 0.0566,-21.23274 -0.29427,-5.24025 -0.0114,-10.48054 0.0114,-15.72082 -11.7595,-0.12448 -23.51899,0.0792 -35.27847,-0.0113 -2.60317,-0.11318 -5.21764,0.14713 -7.82081,-0.1245 l -0.82621,-0.1245 c -1.66376,-0.30559 -3.79156,-0.20372 -4.49328,-2.10516 0.88281,-5.80619 1.78826,-11.61236 2.72765,-17.40722 0.50932,-2.51261 0.84887,-5.04787 1.16576,-7.59444 1.48268,-0.14713 2.96535,-0.14713 4.45934,-0.21504 2.73897,0.034 5.48926,0.1245 8.23956,0.0226 4.39142,0.20373 10.93327,0.67908 12.16694,-4.79887 0.0905,-35.44824 0.034,-70.90781 0.14714,-106.36737 -0.0114,-1.86748 -0.0792,-3.74628 -0.29427,-5.60245 -0.249,-2.32021 -2.93139,-2.67106 -4.50461,-3.82551 -6.64371,-0.6904 -13.35534,-1.24499 -20.05564,-1.02994 -1.49398,-0.0792 -2.98797,-0.1019 -4.448,-0.41878 -0.0679,-0.55458 -0.19241,-1.67508 -0.26032,-2.22966 0.11318,-7.28885 -0.249,-14.57769 -0.0793,-21.85522 0.38482,-0.20372 1.14314,-0.6225 1.51663,-0.82622 15.92454,-0.0453 31.84909,0.21504 47.76232,-0.0113 -0.16977,-12.55175 -0.0679,-25.10351 -0.249,-37.655263 z"
     id="path42"
     inkscape:connector-curvature="0"
     style="fill:#fde9aa" />
  <path
     d="m 199.92931,82.208793 c 2.28626,1.584531 4.21034,3.870785 6.94931,4.674369 2.24098,0.282951 4.54986,0.328224 6.7569,-0.169772 0.9394,-1.256307 1.72034,-2.614477 2.55788,-3.938693 0.0679,3.723649 0.0905,7.458618 0.0452,11.182264 -2.54657,6.100459 -0.72436,12.823399 -1.90144,19.172839 -4.35746,0.71304 -8.39802,-1.41476 -12.42725,-2.70502 -0.86018,-8.08112 0.63381,-16.445179 -1.96935,-24.311248 -0.0114,-1.30158 -0.0114,-2.60316 -0.0114,-3.904739 z"
     id="path44"
     inkscape:connector-curvature="0"
     style="fill:#896413" />
  <path
     d="m 263.16345,103.54338 c 3.88211,-6.56449 7.58312,-13.242156 11.71422,-19.659511 4.2556,4.84414 9.84674,8.330115 15.95851,10.333406 11.27281,4.142425 19.81796,13.219535 27.09549,22.443775 0.79226,2.53524 1.7543,5.0139 3.07852,7.31148 4.16506,7.23225 6.82481,15.15491 10.16364,22.77198 1.96934,3.61047 -1.14313,7.70762 -3.70101,10.0731 -3.79156,0.70172 -7.28885,2.22966 -10.71823,3.95001 -4.33483,-5.09314 -3.61047,-12.82339 -8.43197,-17.69016 -0.16978,-0.29428 -0.498,-0.8715 -0.65645,-1.15445 -1.3129,-4.35747 -2.20704,-9.21293 -5.68169,-12.44989 -3.55387,-3.29357 -7.77552,-5.74959 -11.49917,-8.83943 4.86677,0.3735 8.71493,3.64442 13.28743,4.91205 2.45603,-3.15774 6.56449,-6.96063 4.57252,-11.31808 -1.57323,-3.85947 -5.60246,-5.84014 -8.48857,-8.61307 -3.61047,-3.48597 -8.74888,-5.17236 -13.74016,-4.47065 -5.28554,0.78096 -10.61637,1.67508 -15.65291,3.50861 -2.51261,0.96204 -1.75431,4.22165 -2.15044,6.30418 -3.62178,-0.63381 -4.43668,-4.36878 -5.14973,-7.41335 z"
     id="path46"
     inkscape:connector-curvature="0"
     style="fill:#feda7b" />
  <path
     d="m 304.90455,87.301931 c 3.80288,-1.018629 7.99057,-2.01462 11.87268,-0.837539 5.54586,2.89743 10.46923,7.028535 16.33199,9.326107 3.58784,0.339539 6.8814,-1.912763 10.4466,-2.105167 6.9493,3.078515 6.00989,11.567078 4.90073,17.712798 -2.13913,6.56449 -2.0599,13.92125 -6.31549,19.68216 -1.50531,-1.09786 -2.85216,-2.39944 -4.21034,-3.67838 -9.08842,-13.67225 -20.61022,-25.54492 -32.91299,-36.331058 -0.12449,-1.256307 -0.23767,-2.512614 -0.11318,-3.768921 z"
     id="path48"
     inkscape:connector-curvature="0"
     style="fill:#fffa9d" />
  <path
     d="m 199.94064,86.113532 c 2.60315,7.866069 1.10916,16.230128 1.96934,24.311248 4.02924,1.29026 8.0698,3.41806 12.42725,2.70502 1.17708,-6.34944 -0.64513,-13.07238 1.90144,-19.172839 0,8.613059 0.0566,17.226129 0,25.827869 -5.43268,0.034 -10.87668,0.034 -16.30936,0 -0.0566,-11.21622 -0.0114,-22.44376 0.0114,-33.671298 z"
     id="path50"
     inkscape:connector-curvature="0"
     style="fill:#7b5908" />
  <path
     d="m 358.72205,91.648076 c 14.01178,17.927844 24.59419,38.515444 31.22659,60.280114 -1.46003,0.3735 -3.18038,0.21505 -4.40273,1.15445 -3.33883,3.80288 -5.26291,8.57911 -6.82481,13.3327 -2.15044,6.87008 -6.71162,13.03843 -6.99457,20.44046 0.20372,2.70502 -2.26362,4.90074 -2.04858,7.46994 2.88612,5.74959 -4.53855,10.87668 -2.21834,16.71681 1.09786,4.15374 4.88942,6.55318 7.33412,9.8241 1.39212,3.79156 0.96203,8.36407 -1.53927,11.63499 -2.68238,4.09715 -8.56778,5.16105 -10.10705,10.11838 -0.79225,3.03324 -4.34614,3.35014 -6.38339,5.27422 0.18109,-2.08253 0.39613,-4.15374 0.54326,-6.22494 0.93941,-7.20963 2.44471,-14.35134 3.01062,-21.60624 0.40745,-12.0198 0.64513,-24.13015 -1.30159,-36.03677 -1.3808,-13.00449 -5.84013,-25.42043 -10.80876,-37.44023 1.17707,1.05259 2.37679,2.08253 3.63311,3.04456 -0.54327,-9.65432 2.95402,-18.68615 4.90072,-27.97831 1.47135,-5.85144 4.1877,-11.69157 3.27093,-17.87124 -0.79227,-3.99529 -2.16176,-8.024526 -1.29026,-12.132994 z"
     id="path52"
     inkscape:connector-curvature="0"
     style="fill:#ffe47f" />
  <path
     d="m 239.54261,120.24888 c -0.15845,-8.37539 -0.87149,-16.92054 0.92808,-25.160111 1.27894,4.685691 0.43009,9.631691 1.40345,14.351341 2.54657,4.45932 6.9493,7.34543 10.4579,10.96722 -0.64512,0.22636 -1.93539,0.6904 -2.58051,0.92809 -3.40675,-0.39614 -6.82481,-0.58854 -10.20892,-1.08654 z"
     id="path54"
     inkscape:connector-curvature="0"
     style="fill:#846112" />
  <path
     d="m 55.340779,101.00814 c 0.724356,1.22234 1.403441,2.48997 2.320207,3.59914 4.515915,-1.21103 8.375383,2.01462 12.495165,3.29356 3.791559,1.07522 6.360764,4.14242 9.337421,6.50791 2.999292,2.41075 7.266213,3.37278 9.111055,7.06247 -2.308887,3.50862 -4.504593,7.10776 -6.768212,10.65032 0.07922,-1.48266 0.226362,-2.97665 0.06791,-4.45932 -4.912049,-4.30087 -11.94058,-3.14642 -17.429851,-6.17967 -3.723651,-2.08253 -8.092431,-1.91276 -12.132987,-2.8748 -2.139118,-0.80358 -3.655742,-2.67106 -5.353454,-4.11978 1.086535,-2.08253 2.342843,-4.06319 3.54256,-6.07782 1.539259,-2.50129 3.180382,-4.94599 4.810187,-7.40201 z"
     id="path56"
     inkscape:connector-curvature="0"
     style="fill:#ffe18b" />
  <path
     d="m 270.46362,104.65255 c 5.03654,-1.83353 10.36737,-2.72765 15.65291,-3.50861 4.99128,-0.70171 10.12969,0.98468 13.74016,4.47065 2.88611,2.77293 6.91534,4.7536 8.48857,8.61307 1.99197,4.35745 -2.11649,8.16034 -4.57252,11.31808 -4.5725,-1.26763 -8.42066,-4.53855 -13.28743,-4.91205 -7.09643,-3.85946 -14.65692,-6.73426 -22.17213,-9.67696 0.39613,-2.08253 -0.36217,-5.34214 2.15044,-6.30418 z"
     id="path58"
     inkscape:connector-curvature="0"
     style="fill:#ffe68b" />
  <path
     d="m 45.267682,103.87161 c 1.278945,-1.15445 3.13511,-0.83754 4.606462,-0.27163 0.362178,1.58452 0.497995,3.20301 0.656448,4.81017 -1.199717,2.01463 -2.456025,3.99529 -3.54256,6.07782 -13.796747,24.08488 -21.662815,51.32752 -23.835888,78.94365 -0.758312,1.21103 -1.878802,2.36547 -1.788257,3.91605 -0.497996,8.62438 0.577222,17.29404 -0.362178,25.88446 -1.165764,0.40745 -2.320208,0.35086 -3.463334,-0.15845 -1.686396,-4.19901 -3.067202,-8.6357 -3.02193,-13.19689 0.169772,-8.3867 -0.305587,-16.80735 0.497996,-25.17142 0.611177,-4.88942 2.218345,-9.58641 2.738976,-14.48715 0.701722,-6.08912 1.77694,-12.1443 3.633106,-17.99576 1.154445,-3.49729 1.776939,-7.13038 1.83353,-10.79745 4.142419,-10.67295 8.680971,-21.278 14.883282,-30.93232 2.71634,-1.84485 4.730959,-4.45933 7.164347,-6.62108 z"
     id="path60"
     inkscape:connector-curvature="0"
     style="fill:#ad8b2f" />
  <path
     d="m 260.93379,105.98809 c 0.747,-0.80359 1.49399,-1.61848 2.22966,-2.44471 0.71305,3.04457 1.52795,6.77954 5.14973,7.41335 7.51521,2.9427 15.0757,5.8175 22.17213,9.67696 3.72365,3.08984 7.9453,5.54586 11.49917,8.83943 3.47465,3.23696 4.36879,8.09242 5.68169,12.44989 -1.02995,-0.70172 -2.05989,-1.40345 -3.11247,-2.04857 0.13581,1.96934 0.39613,3.93869 0.47536,5.91935 -0.43009,-0.0113 -1.30159,-0.034 -1.74299,-0.0453 -4.10847,-10.40132 -13.42325,-17.88257 -23.11153,-22.9078 -6.6324,-3.67838 -14.92856,-4.23297 -20.57628,-9.60905 -0.52064,-2.51262 0.54326,-4.92337 1.33553,-7.24358 z"
     id="path62"
     inkscape:connector-curvature="0"
     style="fill:#e5cb73" />
  <path
     d="m 23.152144,193.43162 c 2.173073,-27.61613 10.039141,-54.85877 23.835888,-78.94365 1.697712,1.44872 3.214336,3.3162 5.353454,4.11978 4.040556,0.96204 8.409336,0.79227 12.132987,2.8748 5.489271,3.03325 12.517802,1.8788 17.429851,6.17967 0.158453,1.48267 0.01131,2.97666 -0.06791,4.45932 -7.900023,13.16294 -13.332704,27.67273 -16.829992,42.58997 -3.519925,15.13227 -4.063193,30.77387 -3.225654,46.24569 -0.384816,1.5619 -0.814903,3.12379 -1.278944,4.68568 -0.452724,-1.16576 -0.939401,-2.30889 -1.460033,-3.44069 -6.213629,-1.75431 -12.506483,-4.09715 -17.112945,-8.8168 -3.044564,-1.0639 -6.768215,-1.0073 -9.031831,-3.65574 -2.331526,-2.75029 -4.19901,-6.11176 -7.62839,-7.67365 -0.316906,3.29356 0.203726,6.98325 -2.376797,9.55246 0,-6.0665 -0.0566,-12.12167 0.260315,-18.17684 z"
     id="path64"
     inkscape:connector-curvature="0"
     style="fill:#ffee9b" />
  <path
     d="m 88.604627,121.47122 c 1.109179,-1.47134 2.252302,-2.92006 3.463335,-4.31218 5.681681,7.63971 16.399908,8.6357 22.817268,15.43786 2.37679,3.10116 5.04786,6.04386 6.64371,9.66565 1.66376,3.82551 4.06319,7.42467 7.52653,9.83542 5.12708,4.06319 12.86866,3.32751 17.19217,8.61306 3.16906,3.5652 2.09384,8.53384 2.98797,12.83471 1.14313,6.68899 -0.31691,13.55906 1.18841,20.2141 1.51661,7.30017 -1.245,15.17756 2.42206,22.03632 0.64514,9.29214 0.0679,18.66351 0.30559,27.98962 0.26031,5.04786 -0.80359,10.49186 -4.27824,14.34001 -3.24829,3.70101 -8.45461,4.79886 -11.65762,8.56778 -1.49399,0.0679 -2.97666,0.0679 -4.45933,0.21505 -0.48668,0.0905 -1.47135,0.26031 -1.96935,0.35086 -8.52251,8.64702 -10.12968,25.49965 0.39613,33.21858 4.36879,3.85947 10.33341,4.28956 15.67556,5.87409 -0.23769,1.36949 -0.65645,2.72766 -1.32422,3.96133 -6.70031,-2.42208 -14.34001,-2.11648 -20.49705,-6.00991 -2.97666,-2.77293 -4.16506,-6.85876 -5.02523,-10.7069 -2.51262,-10.92196 0.89413,-23.40581 9.84673,-30.50224 6.84745,-1.90144 15.57369,-3.50861 18.66352,-10.84272 0.98467,-6.15705 0.29428,-12.42727 0.43009,-18.62958 -0.16977,-5.59113 0.30559,-11.21621 -0.21505,-16.79603 -0.87149,-1.66376 -2.37679,-2.94271 -3.0672,-4.69701 -0.8149,-6.27022 0.72436,-12.74416 -1.04126,-18.9012 -2.02594,-5.46664 -1.65244,-11.32941 -2.56921,-16.98845 -0.66776,-3.83683 -5.03655,-4.15373 -7.90002,-5.62509 -3.57651,-1.89012 -7.73025,-1.18839 -11.38599,0.0452 -5.11577,1.6864 -10.33341,-0.41876 -15.47182,-0.65645 -7.752894,2.47866 -15.381283,5.48928 -23.337896,7.31149 -1.935391,0.50931 -3.746284,1.35817 -5.48927,2.3202 -3.701013,-0.14713 -7.458618,-0.21503 -11.057769,-1.14312 -1.754303,-0.32823 -1.742985,-2.51262 -2.410752,-3.78024 3.497288,-14.91723 8.929969,-29.42702 16.829992,-42.58996 2.263619,-3.54256 4.459325,-7.1417 6.768212,-10.65032 z"
     id="path66"
     inkscape:connector-curvature="0"
     style="fill:#d9b05d" />
  <path
     d="m 317.93167,116.66105 c 6.8248,6.40603 9.77882,15.5284 14.53242,23.36052 3.76892,6.2589 3.6331,13.87597 6.64372,20.45178 2.92007,6.73426 4.91204,13.80807 7.15303,20.79132 -12.05377,1.95803 -23.98303,5.01392 -36.16128,5.90804 1.24499,-4.53855 4.19901,-8.68097 3.92737,-13.57038 -0.0566,-10.42396 -3.61047,-20.40651 -5.70431,-30.52487 4.8215,4.86677 4.09714,12.59702 8.43197,17.69016 3.42938,-1.72035 6.92667,-3.24829 10.71823,-3.95001 2.55788,-2.36548 5.67035,-6.46263 3.70101,-10.0731 -3.33883,-7.61707 -5.99858,-15.53973 -10.16364,-22.77198 -1.32422,-2.29758 -2.28626,-4.77624 -3.07852,-7.31148 z"
     id="path68"
     inkscape:connector-curvature="0"
     style="fill:#fcd16f" />
  <path
     d="m 125.82982,126.1456 c 0.15845,-2.02594 0.41876,-4.35747 2.29756,-5.55718 -0.16977,7.27753 0.19241,14.56637 0.0793,21.85522 -2.65976,-4.99128 -2.70503,-10.78613 -2.3768,-16.29804 z"
     id="path70"
     inkscape:connector-curvature="0"
     style="fill:#98711c" />
  <path
     d="m 114.88523,132.5969 c 0.46403,-0.49799 1.3808,-1.49398 1.84484,-1.99197 0.37349,0.10189 1.12049,0.28294 1.49399,0.37349 2.36548,3.07852 3.08984,7.28885 6.03253,10.06178 5.93069,8.61306 17.36195,10.12968 25.00166,16.67154 1.99198,1.96935 3.48597,4.52723 3.89342,7.3228 0.9394,11.15963 0.52064,22.39849 1.83353,33.52417 0.53195,5.03654 -0.6225,10.28814 1.23367,15.14359 0.50931,8.14902 0.10189,16.332 0.27164,24.49234 -0.0792,6.17968 0.47536,12.49517 -1.16577,18.53902 -1.91276,4.47065 -6.39471,6.89271 -9.86937,9.98255 -2.75029,0.1019 -5.50058,0.0114 -8.23956,-0.0226 3.20301,-3.76892 8.40933,-4.86678 11.65762,-8.56779 3.47465,-3.84815 4.53855,-9.29215 4.27824,-14.34001 -0.23768,-9.32611 0.33955,-18.69748 -0.30559,-27.98962 -3.66706,-6.85876 -0.90545,-14.73615 -2.42206,-22.03632 -1.50532,-6.65504 -0.0453,-13.52511 -1.18841,-20.2141 -0.89413,-4.30087 0.18109,-9.26951 -2.98797,-12.83471 -4.32351,-5.28554 -12.06509,-4.54987 -17.19217,-8.61306 -3.46334,-2.41075 -5.86277,-6.0099 -7.52653,-9.83542 -1.59585,-3.62178 -4.26692,-6.56449 -6.64371,-9.66565 z"
     id="path72"
     inkscape:connector-curvature="0"
     style="fill:#b5903f" />
  <path
     d="m 283.13988,135.36983 c 4.23296,0.46405 6.81349,4.1877 8.72624,7.59444 7.16434,12.58571 8.08111,28.64608 2.01462,41.84296 -2.8748,6.54185 -3.79156,14.97383 1.25631,20.73473 1.79957,2.72766 5.85145,4.60647 5.12709,8.37539 -6.14572,-7.66235 -14.91724,-12.74416 -24.23202,-15.55105 3.14642,-3.23697 7.02853,-5.70432 9.88069,-9.24688 4.74228,-5.43267 7.52652,-12.32539 8.72624,-19.37656 1.24499,-12.30276 -1.73167,-26.04291 -11.49917,-34.37303 z"
     id="path74"
     inkscape:connector-curvature="0"
     style="fill:#846110" />
  <path
     d="m 304.5537,139.87444 c 1.05258,0.64512 2.08252,1.34685 3.11247,2.04857 0.15845,0.28295 0.48667,0.86017 0.65645,1.15445 2.09384,10.11836 5.64772,20.10091 5.70431,30.52487 0.27164,4.88941 -2.68238,9.03183 -3.92737,13.57038 12.17825,-0.89412 24.10751,-3.95001 36.16128,-5.90804 l 1.19972,0.27164 c 1.29026,4.68568 3.32751,9.59774 1.95802,14.50978 -1.16576,3.39542 0.91676,8.80548 -3.76892,10.00518 -3.54256,1.79959 -4.5046,-3.66705 -7.71894,-3.79154 -4.53855,-0.27164 -8.73756,2.17306 -13.2761,2.13911 -3.04457,0.27164 -5.65906,-1.50531 -8.46593,-2.3202 -2.69371,-0.56591 -4.15374,-3.19171 -5.64773,-5.24028 -1.89012,-2.72766 -0.0792,-5.82882 1.04126,-8.45461 -1.95802,-0.0566 -3.91605,0 -5.87409,0.034 -0.57722,-0.1924 -1.73166,-0.57722 -2.30888,-0.75831 1.78825,-6.07781 4.53855,-12.0198 4.49328,-18.48243 -0.47536,-7.97925 -1.89013,-15.90191 -4.60646,-23.42844 0.4414,0.0114 1.3129,0.034 1.74299,0.0453 -0.0792,-1.98066 -0.33955,-3.95001 -0.47536,-5.91936 z"
     id="path76"
     inkscape:connector-curvature="0"
     style="fill:#e7bc5e" />
  <path
     d="m 14.799398,171.66694 c 2.037255,-10.25419 3.859467,-20.75737 8.420655,-30.24193 -0.0566,3.66707 -0.679085,7.30016 -1.83353,10.79745 -1.856166,5.85146 -2.931384,11.90664 -3.633106,17.99576 -0.520631,4.90074 -2.127799,9.59773 -2.738976,14.48715 -0.803583,8.36407 -0.328224,16.78472 -0.497996,25.17142 -0.04527,4.56119 1.335534,8.99788 3.02193,13.19689 1.143126,0.50931 2.29757,0.5659 3.463334,0.15845 0.9394,-8.59042 -0.135818,-17.26008 0.362178,-25.88446 -0.09055,-1.55058 1.029945,-2.70502 1.788257,-3.91605 -0.316906,6.05517 -0.260315,12.11034 -0.260315,18.17684 0.16977,20.02169 4.210328,39.90756 10.786135,58.78613 8.896014,24.86583 23.134165,47.86419 41.492099,66.85593 3.96133,3.96133 7.809478,8.06979 12.132991,11.63499 5.172357,4.35746 10.367365,8.69229 15.958496,12.50649 1.14312,0.75831 2.29757,1.52794 3.44069,2.29757 -1.29025,0.49799 -2.5692,1.04126 -3.81418,1.6298 5.29686,6.41735 12.87998,11.29545 21.23272,12.43857 0.83754,-0.76962 1.15444,-1.91275 1.67508,-2.88611 2.92007,1.50531 5.93067,2.80689 8.88469,4.23297 6.89272,3.14642 14.05706,5.67036 21.30064,7.86607 -0.35086,0.22636 -1.0639,0.65645 -1.41476,0.87149 0.50931,0.83754 1.09785,1.6298 1.59585,2.48998 -0.57722,1.21103 -1.27894,2.36548 -1.87881,3.5652 5.68169,2.13911 11.58973,3.62178 17.49777,4.99127 2.15044,0.4414 4.15374,1.4374 5.95331,2.68239 -0.91676,-0.0114 -2.73898,-0.0452 -3.65574,-0.0679 -16.8979,-3.15775 -33.58075,-8.05848 -49.07522,-15.59632 -9.37137,-3.72365 -17.91653,-9.11106 -26.416408,-14.46452 -7.696298,-5.04786 -14.453193,-11.36335 -22.296629,-16.19618 -7.481254,-6.66634 -13.842017,-14.48715 -20.678141,-21.79863 -0.803584,-5.27423 -5.262909,-8.64701 -7.764206,-13.07238 -3.972647,-6.85876 -9.552464,-12.72153 -12.52912,-20.1462 -1.380807,-3.89342 -4.617779,-6.64372 -6.507899,-10.20891 -2.965339,-7.99056 -5.692997,-16.07168 -8.013204,-24.2773 -2.105164,-7.28883 -5.568498,-14.28341 -6.100448,-21.94576 -1.052583,-11.68026 -2.229663,-23.33789 -2.920066,-35.04079 -0.430087,-12.43857 0.871493,-24.85452 3.021929,-37.08937 z"
     id="path78"
     inkscape:connector-curvature="0"
     style="fill:#ac8527" />
  <path
     d="m 132.91494,145.09208 c 6.7003,-0.21505 13.41192,0.33953 20.05564,1.02994 1.57321,1.15445 4.2556,1.5053 4.5046,3.82551 0.21504,1.85617 0.28295,3.73497 0.29427,5.60245 -0.11318,35.45956 -0.0566,70.91912 -0.14714,106.36737 -1.23367,5.47795 -7.77552,5.00259 -12.16694,4.79886 3.47466,-3.08984 7.95661,-5.5119 9.86937,-9.98255 1.64113,-6.04385 1.08654,-12.35934 1.16577,-18.53902 -0.16978,-8.16034 0.23767,-16.34332 -0.27164,-24.49234 0.53195,-11.44257 -0.21505,-22.88516 -0.0905,-34.33907 -0.12451,-5.09314 0.23767,-10.25418 -0.66777,-15.29073 -1.26763,-4.18769 -3.20302,-8.68097 -7.16435,-10.9559 -4.83282,-3.25962 -10.89931,-4.1877 -15.38127,-8.02452 z"
     id="path80"
     inkscape:connector-curvature="0"
     style="fill:#8b6818" />
  <path
     d="m 197.60911,146.24651 c 5.91936,-0.28294 11.85003,-0.35085 17.76939,-0.14713 -5.29686,1.96935 -11.39731,4.3122 -13.54775,10.08442 -2.44471,6.62107 -1.94671,13.89861 -1.82221,20.83659 0.11319,5.47795 2.07121,10.86537 6.3155,14.4532 -0.98468,0.56589 -1.98068,1.09785 -2.9993,1.61848 -1.89012,0.0792 -3.78024,-0.0226 -5.67036,-0.11318 -0.11318,-15.57369 -0.0226,-31.15869 -0.0452,-46.73238 z"
     id="path82"
     inkscape:connector-curvature="0"
     style="fill:#765505" />
  <path
     d="m 215.3785,146.09938 c 9.0092,-0.0114 18.23343,1.36949 26.41641,5.30819 5.11578,2.48997 9.22424,7.3228 9.88068,13.09502 0.28296,4.54986 0.37351,9.34874 -1.68639,13.53643 -3.33883,7.22094 -11.28413,10.88799 -18.67484,12.49516 0.0566,-0.45272 0.18109,-1.34685 0.23768,-1.79957 6.68899,-2.71635 13.27612,-6.90403 16.23014,-13.79674 1.85617,-5.97596 0.40745,-13.01581 -4.48196,-17.18086 -4.30088,-4.45932 -10.75219,-4.84414 -16.46781,-6.0099 -5.31951,-0.33954 -11.32941,-1.13181 -15.92455,2.18439 -5.5006,4.946 -6.55317,12.73284 -6.5645,19.72742 0.35087,6.67767 3.75761,13.51379 9.97125,16.47913 3.1351,1.40345 6.65503,0.23768 9.91463,0.83754 -2.46734,0.6904 -4.946,1.33553 -7.46993,1.70903 -4.48196,0.0566 -8.94129,0.59986 -13.43457,0.40745 1.01862,-0.52063 2.01462,-1.05259 2.9993,-1.61848 -4.24429,-3.58783 -6.20231,-8.97525 -6.3155,-14.4532 -0.1245,-6.93798 -0.6225,-14.21552 1.82221,-20.83659 2.15044,-5.77222 8.25089,-8.11507 13.54775,-10.08442 z"
     id="path84"
     inkscape:connector-curvature="0"
     style="fill:#886615" />
  <path
     d="m 210.90786,153.9315 c 4.59514,-3.3162 10.60504,-2.52393 15.92455,-2.18439 5.71562,1.16576 12.16693,1.55058 16.46781,6.0099 4.88941,4.16505 6.33813,11.2049 4.48196,17.18086 -2.95402,6.89271 -9.54115,11.08039 -16.23014,13.79674 -0.0566,0.45272 -0.18109,1.34685 -0.23768,1.79957 l -0.1019,0.31691 c -4.74227,0.96204 -9.58642,1.86748 -14.45319,1.83353 2.52393,-0.3735 5.00259,-1.01863 7.46993,-1.70903 -3.25961,-0.59986 -6.77954,0.56591 -9.91464,-0.83754 -6.21363,-2.96534 -9.62037,-9.80146 -9.97124,-16.47913 0.0114,-6.99458 1.0639,-14.78142 6.56449,-19.72742 z"
     id="path86"
     inkscape:connector-curvature="0"
     style="fill:#a88530" />
  <path
     d="m 385.54591,153.08264 c 1.22235,-0.9394 2.9427,-0.78095 4.40273,-1.15445 10.71823,34.99552 10.77482,73.16011 0.52063,108.28013 -2.75029,-2.38812 -5.12708,-6.02122 -9.145,-6.07782 -5.16106,-0.0905 -10.33342,0.31691 -15.48315,0.61118 -5.41004,2.20702 -10.96722,4.76491 -14.8946,9.24687 -0.14713,-0.55458 -0.45272,-1.65243 -0.59985,-2.1957 2.48997,-6.47394 4.85546,-13.0837 5.81749,-19.97642 l 1.14312,-0.14713 c -0.14713,2.0712 -0.36217,4.14241 -0.54326,6.22494 2.03725,-1.92408 5.59114,-2.24098 6.38339,-5.27422 1.53927,-4.95733 7.42467,-6.02123 10.10705,-10.11838 2.5013,-3.27092 2.93139,-7.84343 1.53927,-11.63499 -2.4447,-3.27092 -6.23626,-5.67036 -7.33412,-9.8241 -2.32021,-5.84013 5.10446,-10.96722 2.21834,-16.71681 -0.21504,-2.5692 2.2523,-4.76492 2.04858,-7.46994 0.28295,-7.40203 4.84413,-13.57038 6.99457,-20.44046 1.5619,-4.75359 3.48598,-9.52982 6.82481,-13.3327 z"
     id="path88"
     inkscape:connector-curvature="0"
     style="fill:#ffd675" />
  <path
     d="m 232.33299,158.34555 c 2.72766,-0.55458 4.90074,1.96935 6.91535,3.4407 4.42537,3.51993 4.65173,10.51449 1.04126,14.66823 -3.40674,5.11578 -9.50718,7.06249 -15.05305,8.87338 -2.68239,0.30559 -5.5685,0.6225 -8.18297,-0.034 -1.14313,-2.58052 -3.25961,-4.47064 -4.83283,-6.73426 -2.61447,-6.5079 -2.1957,-16.25277 5.22896,-19.37656 4.77623,-2.96534 10.16364,2.28625 14.88328,-0.83754 z"
     id="path90"
     inkscape:connector-curvature="0"
     style="fill:#d5b055" />
  <path
     d="m 225.7006,167.47924 c 1.33553,-1.72035 2.68238,-3.74628 4.946,-4.27823 2.78424,1.04127 4.75359,3.47465 5.93068,6.1344 -0.78096,4.92337 -5.14973,8.05848 -9.56378,9.58642 -2.22968,0.78094 -5.54587,2.10517 -6.98327,-0.58854 1.15445,-3.96133 3.29356,-7.52652 5.67037,-10.85405 z"
     id="path92"
     inkscape:connector-curvature="0"
     style="fill:#f7d071" />
  <path
     d="m 83.964214,177.31466 c 7.956613,-1.82221 15.585002,-4.83283 23.337896,-7.31149 5.13841,0.23769 10.35605,2.34285 15.47182,0.65645 3.65574,-1.23366 7.80948,-1.93539 11.38599,-0.0452 2.86347,1.47136 7.23226,1.78826 7.90002,5.62509 0.91677,5.65904 0.54327,11.52181 2.56921,16.98845 -20.41783,-4.91205 -41.23178,-7.82079 -61.842015,-11.79344 -1.448715,-0.58854 -2.874794,-1.19972 -4.312191,-1.79958 1.742986,-0.96204 3.553879,-1.81089 5.48927,-2.32021 z"
     id="path94"
     inkscape:connector-curvature="0"
     style="fill:#e3b969" />
  <path
     d="m 61.780769,220.9572 c -0.837539,-15.47182 -0.294271,-31.11342 3.225654,-46.24569 0.667767,1.26761 0.656449,3.45201 2.410752,3.78023 3.599151,0.92809 7.356756,0.99599 11.057769,1.14312 1.437397,0.59987 2.863476,1.21105 4.312191,1.79959 -2.240981,0.13581 -4.493281,0.249 -6.666352,0.76962 -2.965339,5.68169 -1.810895,12.48385 -1.516624,18.64089 0.01132,3.73497 1.448715,7.39071 4.097147,10.02783 6.553166,4.95731 15.788732,5.65904 20.927134,12.54043 -7.232254,1.41476 -14.453193,2.84084 -21.696764,4.21033 -4.946003,0.79226 -9.767508,2.43338 -14.826691,2.51262 -0.418769,-3.06721 -0.882811,-6.12309 -1.324216,-9.17897 z"
     id="path96"
     inkscape:connector-curvature="0"
     style="fill:#e6bb61" />
  <path
     d="m 347.46056,181.53631 c 2.88611,-0.97336 5.74958,-2.10517 8.79415,-2.5579 1.05257,1.59586 1.90144,3.32753 2.7616,5.04788 1.94672,11.90662 1.70904,24.01697 1.30159,36.03677 -0.56591,7.2549 -2.07121,14.39661 -3.01062,21.60624 l -1.14312,0.14713 c 0.27164,-3.37279 0.90545,-6.72295 0.99599,-10.10705 -9.48456,-2.82952 -19.44446,-3.87078 -29.13275,-5.89673 -1.59585,-0.46404 -3.58783,-0.71304 -4.40274,-2.37679 -3.3162,-5.41004 -5.3874,-11.64631 -9.7675,-16.35463 -2.72766,-2.90875 -6.20231,-5.41005 -7.59443,-9.31479 -0.59987,-3.07852 -0.22637,-6.23627 -0.5546,-9.34874 1.95804,-0.034 3.91607,-0.0905 5.87409,-0.034 -1.12048,2.62579 -2.93138,5.72695 -1.04126,8.45461 1.49399,2.04857 2.95402,4.67437 5.64773,5.24027 2.80687,0.8149 5.42136,2.59185 8.46593,2.32021 4.53854,0.034 8.73755,-2.41076 13.2761,-2.13912 3.21434,0.1245 4.17638,5.59114 7.71894,3.79155 4.68568,-1.1997 2.60316,-6.60976 3.76892,-10.00518 1.36949,-4.91204 -0.66776,-9.8241 -1.95802,-14.50978 z"
     id="path98"
     inkscape:connector-curvature="0"
     style="fill:#e0b155" />
  <path
     d="m 76.120783,182.20407 c 2.173071,-0.52062 4.425371,-0.63381 6.666352,-0.76962 20.610235,3.97265 41.424185,6.88139 61.842015,11.79344 1.76562,6.15704 0.22636,12.63098 1.04126,18.9012 0.69041,1.7543 2.19571,3.03325 3.0672,4.69701 0.52064,5.57982 0.0453,11.2049 0.21505,16.79603 -0.13581,6.20231 0.55458,12.47253 -0.43009,18.62958 -3.08983,7.33411 -11.81607,8.94128 -18.66352,10.84272 1.04126,-0.996 2.09384,-1.98067 3.11247,-2.99929 -1.0073,-0.21505 -2.01462,-0.43009 -3.0106,-0.63382 2.61447,-1.67508 5.5119,-2.84084 8.3867,-3.96132 2.92006,-0.88282 5.8854,-2.85217 6.29285,-6.1344 1.00731,-5.91937 0.33954,-11.96322 0.46404,-17.93917 -0.21504,-4.83283 0.46404,-9.7562 -0.58854,-14.50979 -1.55058,-1.23368 -3.64442,-0.64513 -5.42136,-0.49799 -12.17827,2.16175 -24.27729,4.75359 -36.44424,6.93798 -0.75831,0.0226 -2.26362,0.0452 -3.02193,0.0566 -5.138402,-6.88139 -14.373968,-7.58312 -20.927134,-12.54043 -2.648432,-2.63712 -4.085829,-6.29286 -4.097147,-10.02783 -0.294271,-6.15704 -1.448715,-12.9592 1.516624,-18.64089 z"
     id="path100"
     inkscape:connector-curvature="0"
     style="fill:#edc572" />
  <path
     d="m 25.268626,202.056 c 3.42938,1.56189 5.296864,4.92336 7.62839,7.67365 2.263616,2.64844 5.987267,2.59184 9.031831,3.65574 4.606462,4.71965 10.899316,7.06249 17.112945,8.8168 0.520632,1.1318 1.007309,2.27493 1.460033,3.44069 0.464041,-1.56189 0.894128,-3.12378 1.278944,-4.68568 0.441405,3.05588 0.905447,6.11176 1.324216,9.17897 -3.112473,0.0679 -1.844848,3.29356 -1.697714,5.29686 2.399435,12.12167 6.134403,23.99433 11.397313,35.18792 2.716339,5.61378 5.919358,10.96723 8.782833,16.51309 -5.862768,-0.63382 -10.729545,-4.39142 -13.615656,-9.3827 -7.220939,-1.29026 -11.284131,-7.84342 -17.520395,-11.02381 -1.505306,-1.21103 -3.327517,0.0226 -5.002594,0.0793 -3.304881,-0.13582 -6.553171,-1.3129 -9.86937,-0.8036 -0.746994,1.41477 -1.335534,2.89744 -1.901438,4.39143 -6.575807,-18.87858 -10.616365,-38.76445 -10.786135,-58.78614 2.580523,-2.56921 2.059891,-6.2589 2.376797,-9.55246 z"
     id="path102"
     inkscape:connector-curvature="0"
     style="fill:#ffe385" />
  <path
     d="m 197.64307,215.69429 c 9.93727,-0.0114 19.87455,0.0792 29.81183,0.0566 9.34874,0.84887 19.08229,2.33153 27.05022,7.68499 3.66707,2.79556 6.55318,6.81349 7.40203,11.38599 -0.21505,0.50932 -0.64513,1.53926 -0.87149,2.04857 -2.35417,-4.10847 -4.60646,-8.52252 -8.69229,-11.18226 -10.49187,-7.41335 -24.00566,-7.78685 -36.37633,-7.51521 -5.45532,-0.18109 -10.82009,2.78425 -13.4572,7.59443 -2.32021,3.29356 -1.99199,7.45862 -2.08253,11.28413 0.0679,6.40604 -0.18109,12.81207 0.20373,19.21811 0.13581,4.14242 3.12379,7.35675 5.3874,10.58241 -2.78424,-0.0679 -5.56849,-0.1245 -8.34142,-0.23768 -0.0793,-16.97713 -0.034,-33.94294 -0.034,-50.92006 z"
     id="path104"
     inkscape:connector-curvature="0"
     style="fill:#785707" />
  <path
     d="m 102.65037,223.35663 c 12.16695,-2.18439 24.26597,-4.77623 36.44424,-6.93798 1.77694,-0.14714 3.87078,-0.73569 5.42136,0.49799 1.05258,4.75359 0.3735,9.67696 0.58854,14.50979 -0.1245,5.97595 0.54327,12.0198 -0.46404,17.93917 -0.40745,3.28223 -3.37279,5.25158 -6.29285,6.1344 -6.10046,-0.12451 -13.06107,2.71633 -18.32399,-1.73168 -1.36948,-2.37679 0.0793,-5.5119 -0.87148,-8.10374 -2.07122,-4.70833 -4.45934,-9.51852 -8.53384,-12.82339 -3.32753,-2.61448 -4.14242,-7.3794 -7.96794,-9.48456 z"
     id="path106"
     inkscape:connector-curvature="0"
     style="fill:#ffde85" />
  <path
     d="m 202.50984,225.76739 c 2.63711,-4.81019 8.00188,-7.77553 13.4572,-7.59444 12.37067,-0.27164 25.88446,0.1019 36.37633,7.51521 4.08583,2.65974 6.33812,7.07379 8.69229,11.18226 0.22636,-0.50931 0.65644,-1.53925 0.87149,-2.04857 4.23296,13.04976 -7.23225,27.80854 -20.48574,28.90639 -0.4414,-0.22636 -1.3129,-0.70172 -1.7543,-0.93941 4.48196,-2.4447 9.86937,-3.90473 13.04975,-8.18297 2.65975,-4.19901 4.49328,-9.40533 3.22565,-14.38528 -1.99197,-5.77222 -7.07379,-9.85805 -12.35934,-12.54044 -7.61707,-3.23698 -16.01509,-3.71234 -24.14148,-4.66306 -4.5725,0.44141 -9.80146,2.15044 -12.06508,6.51922 -3.64441,6.39472 -1.86748,14.04575 -2.24098,21.04033 -0.22636,7.34543 5.48927,13.06107 11.55577,16.2754 -3.55388,0 -7.11907,0.20372 -10.67296,0 -2.26361,-3.22566 -5.25159,-6.43999 -5.3874,-10.58241 -0.38482,-6.40604 -0.13582,-12.81207 -0.20373,-19.21811 0.0905,-3.82551 -0.23768,-7.99056 2.08253,-11.28412 z"
     id="path108"
     inkscape:connector-curvature="0"
     style="fill:#906e1e" />
  <path
     d="m 303.41056,218.54645 c 0.498,-0.0226 1.49399,-0.0679 2.0033,-0.0905 3.53125,4.65173 5.03655,10.51451 5.80618,16.21882 1.3129,12.72153 -1.09785,25.82787 -7.17566,37.10068 -4.10847,6.76821 -10.52582,11.78213 -17.45249,15.4605 -8.47724,5.25159 -18.48243,6.76822 -27.92172,9.4506 -5.33081,1.47136 -9.86936,5.1271 -12.64229,9.88069 -3.38411,4.85546 -4.32352,10.78614 -6.45131,16.2075 l -0.63381,-1.0639 c 0.1019,-9.2582 -0.18109,-18.50507 -0.0679,-27.75194 14.5211,-0.83754 29.37043,-3.03325 42.45413,-9.76751 12.15562,-6.22495 22.33058,-17.2035 25.6581,-30.67202 2.68239,-11.54444 2.58052,-24.50364 -3.57652,-34.97287 z"
     id="path110"
     inkscape:connector-curvature="0"
     style="fill:#876414" />
  <path
     d="m 77.931676,227.62355 c 7.243571,-1.36949 14.46451,-2.79557 21.696764,-4.21033 0.75831,-0.0114 2.26362,-0.034 3.02193,-0.0566 3.82552,2.10516 4.64041,6.87008 7.96794,9.48456 4.0745,3.30488 6.46262,8.11506 8.53384,12.82339 0.95072,2.59184 -0.498,5.72695 0.87148,8.10374 5.26292,4.44801 12.22353,1.60717 18.32399,1.73168 -2.8748,1.12048 -5.77223,2.28624 -8.3867,3.96132 -3.87079,2.44471 -7.62839,5.29686 -10.33341,9.04315 -2.00331,2.60316 -3.44071,5.67036 -5.91937,7.88871 -2.34284,-2.35416 -4.76491,-4.67437 -7.74157,-6.22495 -5.52322,-2.76161 -7.322803,-9.22424 -11.702902,-13.2082 -2.523931,-2.42208 -5.874086,-4.14242 -7.469928,-7.40203 -3.372793,-7.1304 -7.322804,-14.10234 -8.862064,-21.93445 z"
     id="path112"
     inkscape:connector-curvature="0"
     style="fill:#fcd377" />
  <path
     d="m 207.37661,229.5363 c 2.26362,-4.36878 7.49258,-6.07781 12.06508,-6.51922 8.12639,0.95072 16.52441,1.42608 24.14148,4.66306 5.28555,2.68239 10.36737,6.76822 12.35934,12.54044 1.26763,4.97995 -0.5659,10.18627 -3.22565,14.38528 -3.18038,4.27824 -8.56779,5.73827 -13.04975,8.18297 0.4414,0.23769 1.3129,0.71305 1.7543,0.93941 l 0.57722,0.28295 c -8.21692,2.09384 -16.8413,2.72766 -25.30723,2.84084 -6.0665,-3.21433 -11.78213,-8.92997 -11.55577,-16.2754 0.3735,-6.99458 -1.40343,-14.64561 2.24098,-21.04033 z"
     id="path114"
     inkscape:connector-curvature="0"
     style="fill:#b08e3d" />
  <path
     d="m 63.104985,230.13617 c 5.059183,-0.0793 9.880688,-1.72036 14.826691,-2.51262 1.53926,7.83211 5.489271,14.80405 8.862064,21.93445 1.595842,3.2596 4.945997,4.97995 7.469928,7.40203 4.380099,3.98396 6.179682,10.44659 11.702902,13.2082 2.97666,1.55058 5.39873,3.87079 7.74157,6.22494 2.47866,-2.21834 3.91606,-5.28554 5.91937,-7.8887 2.70502,-3.74629 6.46262,-6.59844 10.33341,-9.04315 0.99598,0.20373 2.0033,0.41877 3.0106,0.63382 -1.01863,1.01862 -2.07121,2.00329 -3.11247,2.99929 -8.9526,7.09643 -12.35935,19.58028 -9.84673,30.50224 0.86017,3.84814 2.04857,7.93397 5.02523,10.7069 6.15704,3.89343 13.79674,3.58783 20.49705,6.00991 -0.75831,1.42608 -1.5619,2.82951 -2.41076,4.22165 -3.70101,5.39873 -6.87007,11.13699 -10.29945,16.71681 -2.92007,-6.47395 -9.21292,-10.35605 -12.73285,-16.42254 -3.64442,-6.00991 -9.60905,-9.95992 -14.37397,-14.98515 -3.16906,-3.28225 -6.836118,-6.07782 -9.586409,-9.74487 -2.693706,-3.66707 -6.49658,-6.28154 -9.337421,-9.81278 -0.656449,-1.12049 -1.822212,-1.38081 -2.987976,-1.60717 -1.980667,-5.42137 -6.10045,-9.67696 -8.918653,-14.66824 -0.192407,0.92808 -0.565904,2.77293 -0.758311,3.70101 -5.432681,-11.91793 -8.98656,-24.65078 -11.023815,-37.57603 z"
     id="path116"
     inkscape:connector-curvature="0"
     style="fill:#f3c86a" />
  <path
     d="m 221.00359,228.48372 c 3.37278,-0.23767 6.51922,1.22236 9.81278,1.68639 6.90403,1.17709 14.43055,3.66707 18.41452,9.86938 0.36218,2.79557 0.63382,5.80618 -0.11318,8.53384 -4.53855,6.19098 -11.79344,10.60504 -19.58028,10.85403 -5.98727,1.25632 -14.83802,2.24099 -18.06367,-4.31218 -2.5013,-6.83612 -2.15043,-14.6456 -0.034,-21.53832 2.27493,-2.89743 5.89671,-4.83282 9.56378,-5.09314 z"
     id="path118"
     inkscape:connector-curvature="0"
     style="fill:#d5b360" />
  <path
     d="m 61.407271,235.43303 c -0.147134,-2.0033 -1.414759,-5.22896 1.697714,-5.29686 2.037255,12.92525 5.591134,25.6581 11.023815,37.57603 10.356043,23.45108 26.63145,44.40085 47.42277,59.49918 3.3728,2.51262 7.03985,4.64041 10.29947,7.30016 -1.74299,0.19241 -3.47466,-0.0679 -5.18369,-0.36218 -4.56119,-3.97265 -9.29215,-7.74156 -14.02311,-11.51048 C 101.0432,311.97723 89.92885,300.59124 81.587417,287.13404 78.723942,281.58818 75.520923,276.23473 72.804584,270.62095 67.541674,259.42736 63.806706,247.5547 61.407271,235.43303 Z"
     id="path120"
     inkscape:connector-curvature="0"
     style="fill:#fffa9d" />
  <path
     d="m 223.09743,235.2293 c 7.84344,-0.59985 11.40864,8.17166 13.33271,14.38528 0.9394,2.4334 -2.58052,2.35417 -4.04056,2.84085 -4.10847,0.47535 -8.8281,2.33152 -12.67625,0.1924 -3.95002,-2.26362 -2.85216,-7.31148 -2.95402,-11.09172 -0.47536,-3.57652 2.87479,-6.56448 6.33812,-6.32681 z"
     id="path122"
     inkscape:connector-curvature="0"
     style="fill:#e9c673" />
  <path
     d="m 365.84112,254.74168 c 5.14973,-0.29427 10.32209,-0.70172 15.48315,-0.61118 4.01792,0.0566 6.39471,3.6897 9.145,6.07782 -3.29356,11.35204 -7.73025,22.38717 -13.17425,32.86771 -6.89271,0.78095 -11.53313,6.8248 -17.81466,9.11106 -4.04056,0.65645 -8.1377,-0.0453 -12.18958,0.35087 -4.5725,0.28295 -8.9526,1.70903 -13.32138,2.93138 -4.40274,1.30158 -9.21293,1.04127 -13.2648,3.42938 4.78756,-5.31951 9.36006,-10.84273 13.4572,-16.71681 4.52724,-6.36076 8.14902,-13.29876 11.61235,-20.2707 1.67508,-3.30487 3.10116,-6.72294 4.57252,-10.11836 0.14713,0.54327 0.45272,1.64112 0.59985,2.1957 3.92738,-4.48196 9.48456,-7.03985 14.8946,-9.24687 z"
     id="path124"
     inkscape:connector-curvature="0"
     style="fill:#f8ca69" />
  <path
     d="m 317.89771,272.25076 c 1.60717,-4.17638 1.84485,-8.6923 2.90875,-13.00448 0.61118,3.40675 0.46405,7.09644 1.85617,10.31077 3.53124,3.57652 9.51851,3.91606 14.0231,2.05989 2.89744,-0.83754 6.8814,-2.95402 9.08842,0.29427 -3.46333,6.97194 -7.08511,13.90994 -11.61235,20.2707 -4.50459,-6.07782 -12.34802,-8.14902 -17.56566,-13.46852 -0.61118,-2.25231 0.66776,-4.36879 1.30157,-6.46263 z"
     id="path126"
     inkscape:connector-curvature="0"
     style="fill:#cb9d3f" />
  <path
     d="m 74.887111,264.01119 c 2.818203,4.99128 6.937986,9.24687 8.918653,14.66824 1.165764,0.22636 2.331527,0.48668 2.987976,1.60717 2.840841,3.53124 6.643715,6.14571 9.337421,9.81278 2.750291,3.66705 6.417349,6.46262 9.586409,9.74487 4.76492,5.02523 10.72955,8.97524 14.37397,14.98515 3.51993,6.06649 9.81278,9.94859 12.73285,16.42254 -0.22636,1.14312 -0.45272,2.28624 -0.66777,3.42938 l -0.30558,-0.16978 c -3.25962,-2.65975 -6.92667,-4.78754 -10.29947,-7.30016 -20.79132,-15.09833 -37.066727,-36.0481 -47.42277,-59.49918 0.192407,-0.92808 0.565904,-2.77293 0.758311,-3.70101 z"
     id="path128"
     inkscape:connector-curvature="0"
     style="fill:#eabe5f" />
  <path
     d="m 35.579402,266.00317 c 3.316199,-0.5093 6.564489,0.66777 9.86937,0.80359 1.675077,-0.0566 3.497288,-1.29026 5.002594,-0.0793 6.236264,3.18039 10.299456,9.73355 17.520395,11.02381 2.886111,4.99128 7.752888,8.74888 13.615656,9.3827 8.341433,13.4572 19.455783,24.84319 31.056823,35.50483 -4.58382,8.52252 -14.011788,13.18557 -23.371839,14.01179 -4.685693,0.41877 -9.665649,-1.62981 -14.102338,0.59986 -18.357934,-18.99169 -32.596085,-41.99005 -41.492099,-66.85588 0.565904,-1.49398 1.154444,-2.97666 1.901438,-4.39142 z"
     id="path130"
     inkscape:connector-curvature="0"
     style="fill:#f5d375" />
  <path
     d="m 130.78713,267.25948 c 0.498,-0.0905 1.48267,-0.26031 1.96935,-0.35086 -0.3169,2.54657 -0.65645,5.08183 -1.16577,7.59443 -0.20372,-0.92808 -0.62249,-2.78424 -0.82621,-3.71232 -3.73498,6.10044 -6.80218,14.80405 -1.90144,21.11955 0.70172,1.90143 2.82952,1.79957 4.49328,2.10515 -0.89413,0.249 -2.69371,0.747 -3.58784,0.98468 4.24429,4.86678 10.3221,7.11907 16.37727,8.70361 5.43268,3.91605 13.57039,2.36548 17.85995,8.06979 2.05988,6.10045 2.42206,13.02712 6.59844,18.24476 5.37609,5.98726 14.03442,7.34543 21.69676,7.0172 8.29617,-0.90544 16.581,-2.09384 24.86584,-3.12378 4.22164,0.65645 7.96793,3.84814 12.44989,3.10115 4.59515,-0.62249 9.43929,-1.29026 13.40061,-3.91606 4.00661,-2.55789 7.27754,-6.05518 10.23156,-9.73354 4.75359,-3.47467 6.48525,-9.51852 10.98986,-13.21954 1.19971,-1.01862 2.90874,-1.87879 4.49327,-1.30157 3.3162,2.29757 5.98727,5.81749 10.09574,6.79085 9.85805,0.96203 20.37255,0.66777 29.46097,5.11577 l -0.52063,0.82623 c -2.64844,2.29756 -5.51191,4.3235 -8.27352,6.48525 -2.28626,1.65245 -4.6291,3.21434 -6.97194,4.78755 -1.77694,1.10918 -3.55388,2.21835 -5.34213,3.29357 -3.5652,-3.10115 -4.90074,-8.92997 -10.05047,-9.892 -3.70101,-0.53196 -7.45861,-1.16577 -11.19359,-1.01863 -5.96462,2.25229 -10.2089,7.30016 -15.01909,11.27281 -4.3801,3.81419 -10.26551,4.87809 -15.44919,7.1417 -4.26692,1.89013 -9.91464,2.94271 -13.69488,-0.48667 -1.32421,-0.96203 -2.69371,-2.19571 -4.45932,-1.82221 -6.53054,0.52063 -13.1403,0.0226 -19.56898,1.40345 -6.02122,1.33552 -12.21221,1.51661 -18.33529,1.9467 -4.14243,-0.38482 -8.13771,-1.8788 -11.80477,-3.76892 -3.45201,-1.73167 -5.45531,-5.195 -7.60575,-8.22825 -2.54657,-3.24829 -1.74299,-7.61707 -3.22565,-11.27281 -1.21104,-3.01061 -1.82221,-6.46263 -4.0632,-8.91865 -3.3162,-0.4414 -6.28153,1.86748 -9.58642,2.03726 0.84886,-1.39214 1.65245,-2.79557 2.41076,-4.22165 0.66777,-1.23367 1.08653,-2.59184 1.32422,-3.96133 -5.34215,-1.58453 -11.30677,-2.01462 -15.67556,-5.87409 -10.52581,-7.71893 -8.91864,-24.57156 -0.39613,-33.21858 z"
     id="path132"
     inkscape:connector-curvature="0"
     style="fill:#cea757" />
  <path
     d="m 128.86306,291.91028 c -4.90074,-6.3155 -1.83354,-15.01911 1.90144,-21.11955 0.20372,0.92808 0.62249,2.78424 0.82621,3.71232 -0.93939,5.79486 -1.84484,11.60104 -2.72765,17.40723 z"
     id="path134"
     inkscape:connector-curvature="0"
     style="fill:#b28e36" />
  <path
     d="m 359.48036,302.18709 c 6.28153,-2.28626 10.92195,-8.33011 17.81466,-9.11106 -6.55316,12.63099 -14.45319,24.58288 -23.66611,35.43693 -11.05777,-1.77694 -22.37586,-1.34685 -33.38835,-3.42938 -4.24429,-0.89413 -7.95661,-4.14242 -12.47253,-3.5086 l 0.52063,-0.82623 c 4.35746,-3.71233 8.45461,-7.71893 12.41594,-11.85003 4.05187,-2.38811 8.86206,-2.1278 13.2648,-3.42938 4.36878,-1.22235 8.74888,-2.64843 13.32138,-2.93138 4.05188,-0.39614 8.14902,0.30558 12.18958,-0.35087 z"
     id="path136"
     inkscape:connector-curvature="0"
     style="fill:#fcd277" />
  <path
     d="m 129.7685,295.00011 c 0.89413,-0.23768 2.69371,-0.73568 3.58784,-0.98468 l 0.82621,0.12451 c 4.99128,4.06319 11.71422,3.84814 17.48645,6.06649 5.53454,2.04857 11.96322,2.08253 16.75077,5.87409 4.84414,4.70832 4.48196,12.07639 7.83211,17.64488 0.6904,-4.90072 0.65645,-9.85805 0.65645,-14.79273 l 0.36218,1.0639 c 0.15846,7.0738 0.22637,14.15892 -0.0566,21.23273 0.26032,0.18109 0.79226,0.52063 1.05258,0.70172 4.81018,1.76562 10.02782,1.73167 15.07569,1.55058 7.66235,-0.249 15.17755,-3.18038 22.88517,-1.76563 7.53785,0.26033 15.09833,0.0114 22.64749,0.11319 0.0905,-3.38411 -0.33955,-6.7569 0.0679,-10.11837 l 0.63381,1.0639 c -0.0566,2.60316 -0.0792,5.21763 0.18109,7.8208 0.28295,-0.14714 0.83754,-0.4414 1.12049,-0.58854 7.18699,-3.64442 11.05777,-11.14832 16.09432,-17.06767 -0.78096,3.63309 -2.88611,6.80216 -3.72365,10.42396 -2.95402,3.67836 -6.22495,7.17565 -10.23156,9.73354 -3.96132,2.6258 -8.80546,3.29357 -13.40061,3.91606 -4.48196,0.74699 -8.22825,-2.4447 -12.44989,-3.10115 -8.28484,1.02994 -16.56967,2.21834 -24.86584,3.12378 -7.66234,0.32823 -16.32067,-1.02994 -21.69676,-7.0172 -4.17638,-5.21764 -4.53856,-12.14431 -6.59844,-18.24476 -4.28956,-5.70431 -12.42727,-4.15374 -17.85995,-8.06979 -6.05517,-1.58454 -12.13298,-3.83683 -16.37727,-8.70361 z"
     id="path138"
     inkscape:connector-curvature="0"
     style="fill:#b28e3d" />
  <path
     d="m 134.18255,294.13994 c 2.60317,0.27163 5.21764,0.0114 7.82081,0.12449 9.47323,2.34284 19.44447,1.57322 29.11011,2.47866 5.11578,1.78826 3.92737,8.10375 5.79486,12.18958 0,4.93468 0.034,9.89201 -0.65645,14.79273 -3.35015,-5.56849 -2.98797,-12.93656 -7.83211,-17.64488 -4.78755,-3.79156 -11.21623,-3.82552 -16.75077,-5.87409 -5.77223,-2.21835 -12.49517,-2.0033 -17.48645,-6.06649 z"
     id="path140"
     inkscape:connector-curvature="0"
     style="fill:#916e1e" />
  <path
     d="m 142.00336,294.26443 c 11.75949,0.0905 23.51897,-0.11318 35.27847,0.0114 -0.0226,5.24028 -0.30559,10.48055 -0.0114,15.72082 l -0.36218,-1.0639 c -1.86748,-4.08583 -0.67907,-10.40132 -5.79485,-12.18957 -9.66564,-0.90545 -19.63688,-0.13582 -29.11011,-2.47866 z"
     id="path142"
     inkscape:connector-curvature="0"
     style="fill:#725100" />
  <path
     d="m 199.918,294.19652 c 5.43268,-0.0226 10.88799,-0.0113 16.332,0 0.0679,8.62439 -0.034,17.26008 -0.0114,25.89578 -1.59584,-4.75359 -1.19972,-9.81278 -1.86748,-14.7135 -4.04056,-0.90545 -8.34143,-1.05259 -12.3254,0.22636 -0.97335,5.19499 0,10.69559 -2.10515,15.68686 0.0114,-9.03183 -0.0792,-18.06366 -0.0226,-27.0955 z"
     id="path144"
     inkscape:connector-curvature="0"
     style="fill:#7c5b0e" />
  <path
     d="m 202.04579,305.60516 c 3.98397,-1.27895 8.28484,-1.13181 12.3254,-0.22636 0.66776,4.90072 0.27164,9.95991 1.86748,14.7135 0.0679,3.23698 -0.0114,6.48527 -0.0114,9.72224 -1.04127,-1.32422 -2.07122,-2.73898 -3.53125,-3.6331 -3.39542,0.23767 -6.77953,0.6338 -10.11836,1.22234 -1.01863,1.14314 -1.74299,2.48998 -2.59185,3.74629 -0.0566,-3.28224 -0.1245,-6.5758 -0.0453,-9.85805 2.10516,-4.99127 1.13181,-10.49187 2.10516,-15.68686 z"
     id="path146"
     inkscape:connector-curvature="0"
     style="fill:#8e6c1e" />
  <path
     d="m 143.12384,314.53513 c 3.30489,-0.16978 6.27022,-2.47866 9.58642,-2.03726 2.24099,2.45602 2.85216,5.90804 4.0632,8.91865 1.48266,3.65574 0.67908,8.02452 3.22565,11.27281 2.15044,3.03325 4.15374,6.49658 7.60575,8.22825 3.66706,1.89012 7.66234,3.3841 11.80477,3.76892 6.12308,-0.43009 12.31407,-0.61118 18.33529,-1.9467 6.42868,-1.38081 13.03844,-0.88282 19.56898,-1.40345 1.76561,-0.3735 3.13511,0.86018 4.45932,1.82221 0.52063,4.0066 0.61118,8.09243 1.52794,12.04244 0.73568,0.26032 2.20702,0.76963 2.9427,1.02995 -20.47442,1.64112 -41.43551,0.26031 -60.97052,-6.42867 -11.53314,-3.85947 -22.69276,-8.83943 -33.11672,-15.12096 0.21505,-1.14314 0.44141,-2.28626 0.66777,-3.42938 3.42938,-5.57982 6.59844,-11.31808 10.29945,-16.71681 z"
     id="path148"
     inkscape:connector-curvature="0"
     style="fill:#e0b862" />
  <path
     d="m 307.76803,321.57498 c 4.51592,-0.63382 8.22824,2.61447 12.47253,3.5086 11.01249,2.08253 22.33058,1.65244 33.38835,3.42938 -1.50531,1.77693 -3.01061,3.56519 -4.54987,5.30818 -0.79227,0.78095 -1.5619,1.57321 -2.34284,2.35417 -8.74888,-1.24499 -17.58831,-0.92809 -26.39378,-1.18841 -7.50389,-0.26031 -14.15893,-3.96132 -20.84791,-6.92667 2.76161,-2.16175 5.62508,-4.18769 8.27352,-6.48525 z"
     id="path150"
     inkscape:connector-curvature="0"
     style="fill:#ffe091" />
  <path
     d="m 112.64424,322.63888 c 4.73096,3.76892 9.46192,7.53783 14.02311,11.51048 -3.28224,7.15303 -9.79015,11.98586 -16.5244,15.63028 -4.35747,0.76963 -8.83943,0.75831 -13.24216,1.25631 -2.354167,0.32822 -4.108469,-1.35817 -5.806176,-2.69371 -1.278944,0.0114 -2.546572,0.19241 -3.79156,0.54327 -4.323513,-3.5652 -8.171661,-7.67366 -12.132991,-11.63499 4.436689,-2.22966 9.416645,-0.18109 14.102338,-0.59985 9.360051,-0.82623 18.788019,-5.48928 23.371839,-14.01179 z"
     id="path152"
     inkscape:connector-curvature="0"
     style="fill:#fedc81" />
  <path
     d="m 250.91729,336.50353 c 4.81019,-3.97265 9.05447,-9.02052 15.01909,-11.27281 3.73498,-0.14714 7.49258,0.48667 11.19359,1.01863 5.14973,0.96203 6.48527,6.79085 10.05047,9.892 -13.14031,7.62839 -27.33319,13.53643 -42.14856,16.99977 -6.23627,1.1997 -12.46121,2.48997 -18.78802,3.08983 -0.73568,-0.26032 -2.20702,-0.76963 -2.9427,-1.02995 -0.91676,-3.95001 -1.00731,-8.03584 -1.52794,-12.04244 3.78024,3.42938 9.42796,2.3768 13.69488,0.48667 5.18368,-2.26361 11.06909,-3.32751 15.44919,-7.1417 z"
     id="path154"
     inkscape:connector-curvature="0"
     style="fill:#dfb76a" />
  <path
     d="m 202.57775,327.40378 c 3.33883,-0.58854 6.72294,-0.98467 10.11836,-1.22234 1.46004,0.89412 2.48998,2.30888 3.53125,3.6331 0,0.47535 0,1.42607 0,1.90143 -7.70762,-1.41475 -15.22283,1.51663 -22.88517,1.76563 -5.04787,0.18109 -10.26551,0.21504 -15.07569,-1.55058 7.09644,-0.20372 14.19288,-0.0114 21.278,-0.1019 l 0.44141,-0.67909 c 0.84885,-1.25631 1.57321,-2.60315 2.59184,-3.74629 z"
     id="path156"
     inkscape:connector-curvature="0"
     style="fill:#a68334" />
  <path
     d="m 292.52257,332.84778 c 2.34284,-1.57321 4.68568,-3.1351 6.97194,-4.78755 6.68898,2.96535 13.34402,6.66636 20.84791,6.92667 8.80547,0.26032 17.6449,-0.0566 26.39378,1.18841 -1.87881,1.91275 -3.6897,3.89341 -5.64773,5.73826 -4.30087,-0.65645 -8.65833,-0.57722 -12.99316,-0.31691 -3.67838,0.33955 -7.14171,-1.12048 -10.66163,-1.92407 -8.42066,-1.81089 -16.66023,-4.39142 -24.91111,-6.82481 z"
     id="path158"
     inkscape:connector-curvature="0"
     style="fill:#fff3a9" />
  <path
     d="m 349.07904,333.82114 c 2.03726,-0.39614 3.66705,-1.74299 5.39873,-2.79556 0.21504,0.29427 0.64513,0.90544 0.86017,1.19971 -1.17708,3.10115 -3.12379,5.82881 -4.70833,8.72625 1.98067,-1.39213 3.9387,-2.81821 5.87409,-4.26692 -2.16175,3.79156 -5.57982,6.56449 -8.60174,9.63169 -10.41264,10.39 -21.71941,19.91982 -34.11271,27.86512 -7.4473,3.96133 -14.70219,8.22825 -22.26267,11.96322 -4.70832,3.36147 -10.49187,4.32351 -15.73215,6.53053 -9.68827,3.66707 -19.77268,6.02122 -29.75524,8.71493 -16.41122,1.24499 -32.83376,3.71233 -49.33553,2.17307 -6.2589,-1.41476 -12.85734,0.30559 -18.96911,-1.99198 -1.79957,-1.24499 -3.80287,-2.24099 -5.95331,-2.68239 -5.90804,-1.36949 -11.81608,-2.85216 -17.49777,-4.99127 0.59987,-1.19972 1.30159,-2.35417 1.87881,-3.5652 -0.498,-0.86018 -1.08654,-1.65244 -1.59585,-2.48998 0.35086,-0.21504 1.0639,-0.64513 1.41476,-0.87149 28.81585,8.63569 59.71421,10.46923 89.27706,4.77623 26.88044,-5.02523 52.66305,-16.04904 74.7899,-32.12073 7.40203,-5.42136 14.53243,-11.23886 21.04032,-17.7128 1.95803,-1.84485 3.76892,-3.82551 5.64773,-5.73826 0.78094,-0.78096 1.55057,-1.57322 2.34284,-2.35417 z"
     id="path160"
     inkscape:connector-curvature="0"
     style="fill:#ac892d" />
  <path
     d="m 287.18044,336.14135 c 1.78825,-1.07522 3.56519,-2.18439 5.34213,-3.29357 8.25088,2.43339 16.49045,5.01392 24.91111,6.82481 3.51992,0.80359 6.98325,2.26362 10.66163,1.92407 4.33483,-0.26031 8.69229,-0.33954 12.99316,0.31691 -6.50789,6.47394 -13.63829,12.29144 -21.04032,17.7128 -1.10917,-0.79226 -1.95802,-2.65975 -3.57652,-2.05989 -7.49257,1.84485 -14.57769,4.92337 -21.52699,8.18298 -2.51262,1.58453 -5.28555,0.38482 -7.79816,-0.45272 -8.51121,-2.94271 -17.97312,-1.74299 -26.21269,-5.74959 -5.17237,-2.60316 -11.83871,-1.72035 -15.90191,-6.40603 14.81537,-3.46334 29.00825,-9.37138 42.14856,-16.99977 z"
     id="path162"
     inkscape:connector-curvature="0"
     style="fill:#fffdbe" />
  <path
     d="m 110.14295,349.77964 c 6.73425,-3.64442 13.24216,-8.47725 16.5244,-15.63028 1.70903,0.29427 3.4407,0.55459 5.18369,0.36218 l 0.30558,0.16978 c 10.42396,6.28153 21.58358,11.26149 33.11672,15.12096 -0.57722,1.42607 -2.32021,2.75029 -2.01462,4.34614 5.97595,1.77694 12.40462,1.49399 18.30134,3.55388 5.71564,3.12379 10.97855,7.41335 14.01179,13.29875 4.15374,3.32751 9.80147,3.74629 14.9512,3.84815 4.23296,0.92808 8.39801,2.15043 12.64229,3.08983 0.97336,1.33554 1.05259,3.6897 3.02193,4.00661 3.76892,0.8149 7.53785,-0.92808 11.34073,-0.29427 4.10845,0.61118 8.26219,1.7543 11.75948,4.06319 0.84886,2.73897 -2.64843,4.22165 -4.02923,6.03254 -29.56285,5.693 -60.46121,3.85946 -89.27706,-4.77623 -7.24358,-2.19571 -14.40792,-4.71965 -21.30064,-7.86607 4.32352,-4.17637 6.25891,-10.95591 4.65174,-16.75077 -3.88211,-4.64041 -10.39,-6.65503 -16.30936,-5.87408 -6.73426,0.89413 -13.54775,2.01461 -19.76138,4.91205 -5.591131,-3.8142 -10.786139,-8.14903 -15.958496,-12.50649 1.244988,-0.35086 2.512616,-0.53195 3.79156,-0.54327 1.697707,1.33554 3.452009,3.02193 5.806176,2.69371 4.40273,-0.498 8.88469,-0.48668 13.24216,-1.25631 z"
     id="path164"
     inkscape:connector-curvature="0"
     style="fill:#ffe696" />
  <path
     d="m 165.27334,349.80228 c 19.53501,6.68898 40.4961,8.06979 60.97052,6.42867 6.32681,-0.59986 12.55175,-1.89013 18.78802,-3.08983 4.0632,4.68568 10.72954,3.80287 15.90191,6.40603 8.23957,4.0066 17.70148,2.80688 26.21269,5.74959 2.51261,0.83754 5.28554,2.03725 7.79816,0.45272 6.9493,-3.25961 14.03442,-6.33813 21.52699,-8.18298 1.6185,-0.59986 2.46735,1.26763 3.57652,2.05989 -22.12685,16.07169 -47.90946,27.0955 -74.7899,32.12073 1.3808,-1.81089 4.87809,-3.29357 4.02923,-6.03254 -3.49729,-2.30889 -7.65103,-3.45201 -11.75948,-4.06319 -3.80288,-0.63381 -7.57181,1.10917 -11.34073,0.29427 -1.96934,-0.31691 -2.04857,-2.67107 -3.02193,-4.00661 -4.24428,-0.9394 -8.40933,-2.16175 -12.64229,-3.08983 -5.14973,-0.10189 -10.79746,-0.52064 -14.9512,-3.84815 -3.03324,-5.8854 -8.29615,-10.17496 -14.01179,-13.29875 -5.89672,-2.05989 -12.32539,-1.77694 -18.30134,-3.55388 -0.30559,-1.59585 1.4374,-2.92007 2.01462,-4.34614 z"
     id="path166"
     inkscape:connector-curvature="0"
     style="fill:#ffefa9" />
  <path
     d="m 123.02293,356.47995 c 5.91936,-0.78095 12.42725,1.23367 16.30936,5.87408 1.60717,5.79486 -0.32822,12.5744 -4.65174,16.75077 -2.95402,-1.42608 -5.96462,-2.72766 -8.88469,-4.23297 -6.56449,-3.37278 -12.97053,-7.06248 -19.09362,-11.18226 -1.14312,-0.76963 -2.29757,-1.53926 -3.44069,-2.29757 6.21363,-2.89744 13.02712,-4.01792 19.76138,-4.91205 z"
     id="path168"
     inkscape:connector-curvature="0"
     style="fill:#fffeb9" />
  <path
     d="m 106.70224,363.68957 c 6.12309,4.11978 12.52913,7.80948 19.09362,11.18226 -0.52064,0.97336 -0.83754,2.11649 -1.67508,2.88611 -8.35274,-1.14312 -15.93586,-6.02122 -21.23272,-12.43857 1.24498,-0.58854 2.52393,-1.13181 3.81418,-1.6298 z"
     id="path170"
     inkscape:connector-curvature="0"
     style="fill:#ad913d" />
</svg>
