<?xml version="1.0" encoding="UTF-8" standalone="no"?>
<svg
   xmlns:dc="http://purl.org/dc/elements/1.1/"
   xmlns:cc="http://creativecommons.org/ns#"
   xmlns:rdf="http://www.w3.org/1999/02/22-rdf-syntax-ns#"
   xmlns:svg="http://www.w3.org/2000/svg"
   xmlns="http://www.w3.org/2000/svg"
   xmlns:sodipodi="http://sodipodi.sourceforge.net/DTD/sodipodi-0.dtd"
   xmlns:inkscape="http://www.inkscape.org/namespaces/inkscape"
   width="1000pt"
   height="1000pt"
   viewBox="0 0 1000 1000"
   version="1.1"
   id="svg2"
   inkscape:version="0.91 r13725"
   sodipodi:docname="DASH.svg">
  <metadata
     id="metadata18">
    <rdf:RDF>
      <cc:Work
         rdf:about="">
        <dc:format>image/svg+xml</dc:format>
        <dc:type
           rdf:resource="http://purl.org/dc/dcmitype/StillImage" />
      </cc:Work>
    </rdf:RDF>
  </metadata>
  <defs
     id="defs16" />
  <sodipodi:namedview
     pagecolor="#ffffff"
     bordercolor="#666666"
     borderopacity="1"
     objecttolerance="10"
     gridtolerance="10"
     guidetolerance="10"
     inkscape:pageopacity="0"
     inkscape:pageshadow="2"
     inkscape:window-width="640"
     inkscape:window-height="480"
     id="namedview14"
     showgrid="false"
     inkscape:zoom="0.1888"
     inkscape:cx="625"
     inkscape:cy="625"
     inkscape:window-x="0"
     inkscape:window-y="0"
     inkscape:window-maximized="0"
     inkscape:current-layer="svg2" />
  <path
     fill="#1d76bc"
     d=" M 483.92 0.00 L 511.62 0.00 C 596.51 2.10 680.72 26.67 753.33 70.72 C 817.23 109.33 872.03 162.74 912.55 225.42 C 947.67 279.30 972.07 340.05 984.52 403.13 C 995.84 460.94 996.87 520.77 987.64 578.95 C 974.93 659.61 942.53 737.17 893.38 802.44 C 848.67 861.99 790.39 911.27 724.19 945.38 C 658.66 979.34 585.39 998.16 511.61 1000.00 L 488.36 1000.00 C 453.97 999.07 419.66 994.63 386.20 986.62 C 323.77 971.70 264.34 944.36 212.41 906.62 C 154.58 864.71 106.17 810.01 71.14 747.79 C 30.04 674.94 7.23 591.70 6.26 508.02 C 4.88 433.05 20.92 357.95 51.93 289.73 C 82.50 222.78 128.06 162.69 184.53 115.46 C 246.67 63.16 321.89 26.45 401.46 10.04 C 428.59 4.30 456.24 1.31 483.92 0.00 Z"
     id="path6" />
  <path
     fill="#fdfefe"
     d=" M 311.70 306.43 C 312.77 306.07 313.86 305.88 314.99 305.84 C 462.00 305.87 609.02 305.84 756.03 305.86 C 765.60 305.74 775.33 305.94 784.61 308.55 C 791.40 310.41 797.66 313.71 803.75 317.19 C 815.75 324.26 824.64 336.04 829.18 349.12 C 835.33 367.36 836.00 387.52 830.20 405.95 C 811.84 463.20 793.41 520.42 775.04 577.67 C 770.23 591.52 766.96 606.00 760.06 619.03 C 751.75 635.23 740.13 649.54 727.07 662.15 C 718.41 670.70 708.58 678.01 698.14 684.23 C 678.81 695.92 656.92 704.98 633.97 704.49 C 483.66 704.46 333.35 704.52 183.04 704.46 C 193.48 671.34 204.61 638.43 214.93 605.27 C 350.32 605.01 485.72 605.23 621.10 605.17 C 622.51 605.25 624.22 604.88 624.28 603.17 C 645.50 537.23 667.03 471.38 688.05 405.38 C 552.00 405.27 415.94 405.40 279.89 405.31 C 290.24 372.27 301.50 339.51 311.70 306.43 Z"
     id="path10" />
  <path
     fill="#fdfefe"
     d=" M 198.95 459.24 C 279.66 459.15 360.37 459.15 441.08 459.23 C 431.11 490.09 420.44 520.71 410.27 551.50 C 329.29 551.47 248.31 551.54 167.32 551.46 C 177.94 520.75 188.51 490.01 198.95 459.24 Z"
     id="path12" />
</svg>
