<?xml version="1.0" encoding="UTF-8" standalone="no"?>
<!-- Generator: Adobe Illustrator 18.1.1, SVG Export Plug-In . SVG Version: 6.00 Build 0)  -->

<svg
   xmlns:dc="http://purl.org/dc/elements/1.1/"
   xmlns:cc="http://creativecommons.org/ns#"
   xmlns:rdf="http://www.w3.org/1999/02/22-rdf-syntax-ns#"
   xmlns:svg="http://www.w3.org/2000/svg"
   xmlns="http://www.w3.org/2000/svg"
   xmlns:sodipodi="http://sodipodi.sourceforge.net/DTD/sodipodi-0.dtd"
   xmlns:inkscape="http://www.inkscape.org/namespaces/inkscape"
   version="1.1"
   id="Layer_1"
   x="0px"
   y="0px"
   viewBox="0 0 1920 1080"
   enable-background="new 0 0 1920 1080"
   xml:space="preserve"
   inkscape:version="0.91 r13725"
   sodipodi:docname="ETH-alt.svg"><metadata
     id="metadata39"><rdf:RDF><cc:Work
         rdf:about=""><dc:format>image/svg+xml</dc:format><dc:type
           rdf:resource="http://purl.org/dc/dcmitype/StillImage" /><dc:title></dc:title></cc:Work></rdf:RDF></metadata><defs
     id="defs37" /><sodipodi:namedview
     pagecolor="#ffffff"
     bordercolor="#666666"
     borderopacity="1"
     objecttolerance="10"
     gridtolerance="10"
     guidetolerance="10"
     inkscape:pageopacity="0"
     inkscape:pageshadow="2"
     inkscape:window-width="1920"
     inkscape:window-height="942"
     id="namedview35"
     showgrid="false"
     inkscape:zoom="0.15"
     inkscape:cx="960"
     inkscape:cy="540"
     inkscape:window-x="832"
     inkscape:window-y="-8"
     inkscape:window-maximized="1"
     inkscape:current-layer="Layer_1" /><g
     id="g3"><polygon
       fill="#8A92B2"
       points="959.9,220.9 838.4,422.5 959.9,367.3  "
       id="polygon5" /><polygon
       fill="#62688F"
       points="959.9,367.3 838.4,422.5 959.9,494.4  "
       id="polygon7" /><polygon
       fill="#62688F"
       points="1081.4,422.5 959.9,220.9 959.9,367.3  "
       id="polygon9" /><polygon
       fill="#454A75"
       points="959.9,494.4 1081.4,422.5 959.9,367.3  "
       id="polygon11" /><polygon
       fill="#8A92B2"
       points="838.4,445.6 959.9,616.8 959.9,517.4  "
       id="polygon13" /><polygon
       fill="#62688F"
       points="960,517.4 960,616.8 1081.6,445.6  "
       id="polygon15" /></g><g
     id="g17"
     transform="matrix(0.65591398,0,0,0.75232198,332.21505,62.75542)"><path
       d="m 584.4,813.3 c 0,2.1 -1.8,3.6 -3.9,3.6 l -72.5,0 c 1.8,17.9 15.3,34.3 34.3,34.3 13,0 22.6,-4.9 29.9,-15.3 0.8,-1 1.8,-1.8 3.1,-1.8 2.1,0 3.6,1.6 3.6,3.6 0,0.8 -0.3,1.3 -0.5,1.8 -7.3,12.7 -21.8,19 -36.1,19 -24.4,0 -41.8,-21.8 -41.8,-45.2 0,-23.4 17.4,-45.2 41.8,-45.2 24.4,0 42.1,21.9 42.1,45.2 z m -7.8,-3.6 c -1.6,-17.9 -15.3,-34.3 -34.3,-34.3 -19,0 -32.5,16.4 -34.3,34.3 l 68.6,0 z"
       id="path19"
       inkscape:connector-curvature="0"
       style="fill:#8a92b2" /><path
       d="m 672.5,770 c 2.1,0 3.6,1.8 3.6,3.6 0,2.1 -1.6,3.6 -3.6,3.6 l -19.5,0 0,76.4 c 0,1.8 -1.6,3.6 -3.6,3.6 -2.1,0 -3.6,-1.8 -3.6,-3.6 l 0,-76.4 -18.8,0 c -2.1,0 -3.6,-1.6 -3.6,-3.6 0,-1.8 1.6,-3.6 3.6,-3.6 l 18.7,0 0,-28.1 c 0,-2.1 1.6,-3.6 3.6,-3.6 2.1,0 3.6,1.6 3.6,3.6 l 0,28.1 19.6,0 z"
       id="path21"
       inkscape:connector-curvature="0"
       style="fill:#8a92b2" /><path
       d="m 791.2,806.9 0,46.2 c 0,2.1 -1.8,3.6 -3.6,3.6 -2.1,0 -3.6,-1.6 -3.6,-3.6 l 0,-46.2 c 0,-15.6 -8.8,-31.2 -26.2,-31.2 -22.3,0 -32,19.5 -30.7,39.5 0,0.5 0.3,2.9 0.3,3.1 l 0,34.8 c 0,2.1 -1.6,3.6 -3.6,3.6 -2.1,0 -3.6,-1.6 -3.6,-3.6 l 0,-152 c 0,-1.8 1.6,-3.6 3.6,-3.6 2.1,0 3.6,1.8 3.6,3.6 l 0,86 c 6.2,-11.2 17.4,-18.7 30.4,-18.7 21.2,0 33.4,18.7 33.4,38.5 z"
       id="path23"
       inkscape:connector-curvature="0"
       style="fill:#8a92b2" /><path
       d="m 921.3,813.3 c 0,2.1 -1.8,3.6 -3.9,3.6 l -72.4,0 c 1.8,17.9 15.3,34.3 34.3,34.3 13,0 22.6,-4.9 29.9,-15.3 0.8,-1 1.8,-1.8 3.1,-1.8 2.1,0 3.6,1.6 3.6,3.6 0,0.8 -0.3,1.3 -0.5,1.8 -7.3,12.7 -21.8,19 -36.1,19 -24.4,0 -41.8,-21.8 -41.8,-45.2 0,-23.4 17.4,-45.2 41.8,-45.2 24.4,0 42,21.9 42,45.2 z m -7.8,-3.6 c -1.6,-17.9 -15.3,-34.3 -34.3,-34.3 -19,0 -32.5,16.4 -34.3,34.3 l 68.6,0 z"
       id="path25"
       inkscape:connector-curvature="0"
       style="fill:#8a92b2" /><path
       d="m 1010.4,773.3 c 0,2.3 -1.3,3.6 -3.4,3.9 -21.3,3.1 -30.9,20.5 -30.9,40.8 l 0,34.8 c 0,2.1 -1.6,3.6 -3.6,3.6 -2,0 -3.6,-1.6 -3.6,-3.6 l 0,-79.2 c 0,-2.1 1.6,-3.6 3.6,-3.6 2,0 3.6,1.6 3.6,3.6 l 0,16.1 c 6,-10.1 17.9,-19.7 30.4,-19.7 1.9,0 3.9,1.3 3.9,3.3 z"
       id="path27"
       inkscape:connector-curvature="0"
       style="fill:#8a92b2" /><path
       d="m 1129.7,813.3 c 0,2.1 -1.8,3.6 -3.9,3.6 l -72.5,0 c 1.8,17.9 15.3,34.3 34.3,34.3 13,0 22.6,-4.9 29.9,-15.3 0.8,-1 1.8,-1.8 3.1,-1.8 2.1,0 3.6,1.6 3.6,3.6 0,0.8 -0.3,1.3 -0.5,1.8 -7.3,12.7 -21.8,19 -36.1,19 -24.4,0 -41.8,-21.8 -41.8,-45.2 0,-23.4 17.4,-45.2 41.8,-45.2 24.4,0 42.1,21.9 42.1,45.2 z m -7.8,-3.6 c -1.6,-17.9 -15.3,-34.3 -34.3,-34.3 -19,0 -32.5,16.4 -34.3,34.3 l 68.6,0 z"
       id="path29"
       inkscape:connector-curvature="0"
       style="fill:#8a92b2" /><path
       d="m 1246.8,774.1 0,25.2 0,54.3 c 0,2.1 -1.8,3.6 -3.6,3.6 -2.1,0 -3.6,-1.6 -3.6,-3.6 l 0,-15.1 c -6,12 -16.6,20.5 -30.1,20.5 -21.6,0 -33.5,-18.7 -33.5,-38.4 l 0,-46.5 c 0,-1.8 1.6,-3.6 3.6,-3.6 2,0 3.6,1.8 3.6,3.6 l 0,46.5 c 0,15.6 8.8,31.2 26.2,31.2 24.4,0 30.1,-22.9 30.1,-48.1 l 0,-29.6 c 0,-1.8 1.6,-3.6 3.6,-3.6 1.9,0 3.7,1.8 3.7,3.6 z"
       id="path31"
       inkscape:connector-curvature="0"
       style="fill:#8a92b2" /><path
       d="m 1430.5,806.6 0,46.5 c 0,2.1 -1.8,3.6 -3.6,3.6 -2.1,0 -3.6,-1.6 -3.6,-3.6 l 0,-46.5 c 0,-15.6 -8.8,-30.9 -26.2,-30.9 -21.8,0 -30.1,23.4 -30.1,41.6 l 0,35.8 c 0,2.1 -1.8,3.6 -3.6,3.6 -2.1,0 -3.6,-1.6 -3.6,-3.6 l 0,-46.5 c 0,-15.6 -8.8,-30.9 -26.2,-30.9 -22.1,0 -31.2,17.4 -30.4,40.5 0,0.5 0.3,1.6 0,1.8 l 0,35.1 c 0,2.1 -1.6,3.6 -3.6,3.6 -2,0 -3.6,-1.6 -3.6,-3.6 l 0,-79.5 c 0,-2.1 1.6,-3.6 3.6,-3.6 2,0 3.6,1.6 3.6,3.6 l 0,13.2 c 6.2,-11.2 17.4,-18.4 30.4,-18.4 14.8,0 26.2,9.4 30.9,23.1 6,-13.5 17.7,-23.1 32.7,-23.1 21.1,0 33.3,18.4 33.3,38.2 z"
       id="path33"
       inkscape:connector-curvature="0"
       style="fill:#8a92b2" /></g></svg>