<?xml version="1.0" encoding="UTF-8" standalone="no"?>
<svg
   xmlns:dc="http://purl.org/dc/elements/1.1/"
   xmlns:cc="http://creativecommons.org/ns#"
   xmlns:rdf="http://www.w3.org/1999/02/22-rdf-syntax-ns#"
   xmlns:svg="http://www.w3.org/2000/svg"
   xmlns="http://www.w3.org/2000/svg"
   xmlns:sodipodi="http://sodipodi.sourceforge.net/DTD/sodipodi-0.dtd"
   xmlns:inkscape="http://www.inkscape.org/namespaces/inkscape"
   width="240pt"
   height="240pt"
   viewBox="0 0 240 240"
   version="1.1"
   id="svg2"
   inkscape:version="0.91 r13725"
   sodipodi:docname="FRK.svg">
  <metadata
     id="metadata60">
    <rdf:RDF>
      <cc:Work
         rdf:about="">
        <dc:format>image/svg+xml</dc:format>
        <dc:type
           rdf:resource="http://purl.org/dc/dcmitype/StillImage" />
      </cc:Work>
    </rdf:RDF>
  </metadata>
  <defs
     id="defs58" />
  <sodipodi:namedview
     pagecolor="#ffffff"
     bordercolor="#666666"
     borderopacity="1"
     objecttolerance="10"
     gridtolerance="10"
     guidetolerance="10"
     inkscape:pageopacity="0"
     inkscape:pageshadow="2"
     inkscape:window-width="640"
     inkscape:window-height="480"
     id="namedview56"
     showgrid="false"
     inkscape:zoom="0.78666667"
     inkscape:cx="150"
     inkscape:cy="150"
     inkscape:window-x="0"
     inkscape:window-y="0"
     inkscape:window-maximized="0"
     inkscape:current-layer="svg2" />
  <path
     fill="#0733ce"
     d=" M 67.31 28.26 C 87.01 15.95 111.10 12.68 133.90 14.79 C 151.83 16.85 168.68 24.43 183.54 34.42 C 198.70 45.11 210.07 60.41 218.15 76.95 C 226.27 94.36 228.65 113.98 227.04 133.00 C 225.46 149.69 219.14 165.61 210.44 179.83 C 178.59 179.78 146.73 179.89 114.88 179.78 C 114.88 174.94 114.88 170.10 114.88 165.26 C 118.68 165.15 122.53 165.56 126.30 164.98 C 129.39 164.21 129.40 160.55 129.37 158.00 C 129.22 155.20 129.97 151.52 127.23 149.70 C 123.14 149.08 118.97 149.53 114.84 149.42 C 114.88 142.18 115.26 134.94 115.11 127.70 C 127.76 127.76 140.42 127.68 153.07 127.76 C 155.28 127.74 158.21 127.92 159.25 125.47 C 159.91 121.88 159.85 118.12 159.34 114.51 C 158.70 112.20 156.04 111.95 154.04 111.96 C 140.97 111.87 127.90 112.04 114.83 111.89 C 115.07 103.34 115.38 94.77 114.84 86.22 C 133.24 86.12 151.63 86.19 170.03 86.20 C 172.04 86.19 174.91 86.00 175.59 83.68 C 176.18 79.17 175.72 74.58 175.88 70.03 C 175.70 67.62 176.48 64.39 173.95 62.93 C 170.66 62.34 167.29 62.65 163.97 62.60 C 143.32 62.61 122.66 62.63 102.01 62.59 C 99.06 62.64 96.05 62.33 93.14 62.97 C 91.25 63.89 91.02 66.10 91.08 67.96 C 91.12 95.12 91.07 122.27 91.11 149.42 C 86.78 149.53 82.40 149.04 78.11 149.79 C 75.80 151.44 76.47 154.55 76.29 156.99 C 76.40 159.74 75.68 163.83 79.08 164.91 C 83.02 165.67 87.10 165.10 91.10 165.23 C 91.09 170.09 91.09 174.95 91.10 179.82 C 70.75 179.83 50.39 179.82 30.04 179.82 C 27.29 175.14 24.36 170.55 22.19 165.56 C 17.73 155.20 14.73 144.18 13.69 132.94 C 12.94 121.70 12.61 110.24 15.21 99.19 C 17.67 87.86 22.12 77.00 27.99 67.01 C 36.83 50.51 51.14 37.43 67.31 28.26 Z"
     id="path6" />
  <path
     fill="#ffffff"
     d=" M 117.12 25.27 C 117.75 23.71 118.35 22.14 118.97 20.58 C 119.48 22.14 119.96 23.72 120.45 25.30 C 122.29 25.28 124.13 25.27 125.97 25.27 C 124.48 26.45 122.97 27.60 121.47 28.75 C 122.09 30.44 122.71 32.12 123.32 33.81 C 121.83 32.81 120.34 31.79 118.85 30.79 C 117.33 31.80 115.83 32.83 114.33 33.87 C 114.94 32.17 115.56 30.48 116.18 28.79 C 114.72 27.61 113.25 26.43 111.80 25.24 C 113.58 25.25 115.35 25.26 117.12 25.27 Z"
     id="path8" />
  <path
     fill="#ffffff"
     d=" M 94.34 22.68 C 94.93 24.26 95.53 25.84 96.13 27.42 C 97.97 27.46 99.81 27.49 101.65 27.54 C 100.16 28.67 98.67 29.79 97.17 30.89 C 97.77 32.61 98.36 34.33 98.94 36.06 C 97.40 35.04 95.90 33.98 94.37 32.95 C 92.96 34.03 91.55 35.11 90.13 36.17 C 90.68 34.40 91.25 32.63 91.85 30.87 C 90.32 29.77 88.80 28.67 87.30 27.54 C 89.20 27.49 91.10 27.46 93.00 27.42 C 93.42 25.83 93.86 24.25 94.34 22.68 Z"
     id="path10" />
  <path
     fill="#ffffff"
     d=" M 143.98 22.57 C 144.54 24.21 145.11 25.85 145.73 27.47 C 147.55 27.48 149.37 27.50 151.19 27.54 C 149.69 28.68 148.19 29.82 146.69 30.95 C 147.32 32.64 147.96 34.33 148.57 36.03 C 147.05 35.01 145.54 33.96 144.00 32.97 C 142.53 34.04 141.06 35.10 139.60 36.16 C 140.20 34.40 140.82 32.64 141.44 30.89 C 139.91 29.78 138.39 28.68 136.88 27.56 C 138.75 27.50 140.63 27.48 142.51 27.46 C 142.99 25.83 143.47 24.19 143.98 22.57 Z"
     id="path12" />
  <path
     fill="#ffffff"
     d=" M 166.97 31.76 C 167.57 33.41 168.16 35.06 168.77 36.71 C 170.64 36.69 172.50 36.68 174.38 36.69 C 172.82 37.88 171.26 39.06 169.68 40.22 C 170.37 42.12 171.19 43.96 172.06 45.77 C 170.26 44.78 168.68 43.43 167.03 42.21 C 165.67 43.26 164.33 44.31 162.99 45.37 C 163.37 43.61 163.88 41.88 164.18 40.10 C 162.78 38.83 161.20 37.79 159.70 36.65 C 161.61 36.67 163.53 36.70 165.44 36.73 C 165.96 35.07 166.46 33.42 166.97 31.76 Z"
     id="path14" />
  <path
     fill="#ffffff"
     d=" M 71.93 32.14 C 72.51 33.87 73.07 35.62 73.62 37.36 C 75.38 37.34 77.14 37.33 78.89 37.34 C 77.47 38.49 76.03 39.61 74.58 40.73 C 75.22 42.50 75.84 44.28 76.46 46.06 C 74.95 44.90 73.45 43.74 71.95 42.58 C 70.44 43.72 68.91 44.86 67.37 45.97 C 68.00 44.24 68.66 42.53 69.33 40.82 C 67.88 39.66 66.41 38.51 64.96 37.34 C 66.71 37.33 68.45 37.34 70.20 37.35 C 70.77 35.61 71.34 33.87 71.93 32.14 Z"
     id="path16" />
  <path
     fill="#ffffff"
     d=" M 186.99 45.85 C 187.58 47.60 188.16 49.36 188.75 51.12 C 190.48 51.11 192.21 51.11 193.94 51.12 C 192.57 52.17 191.18 53.22 189.79 54.25 C 190.22 56.00 190.66 57.74 191.09 59.49 C 189.72 58.45 188.37 57.38 187.03 56.31 C 185.50 57.45 183.96 58.59 182.43 59.72 C 183.05 57.92 183.71 56.13 184.38 54.34 C 182.91 53.27 181.44 52.19 179.99 51.11 C 181.72 51.11 183.45 51.12 185.19 51.13 C 185.79 49.37 186.39 47.61 186.99 45.85 Z"
     id="path18" />
  <path
     fill="#ffffff"
     d=" M 52.91 47.69 C 53.48 49.36 54.02 51.03 54.57 52.70 C 56.44 52.68 58.31 52.67 60.18 52.67 C 58.67 53.81 57.16 54.94 55.64 56.06 C 56.14 57.76 56.65 59.45 57.13 61.16 C 55.71 60.18 54.32 59.18 52.92 58.19 C 51.44 59.25 49.95 60.30 48.46 61.35 C 49.05 59.59 49.66 57.84 50.28 56.10 C 48.70 54.97 47.12 53.83 45.55 52.68 C 47.45 52.66 49.35 52.67 51.25 52.66 C 51.79 51.00 52.34 49.34 52.91 47.69 Z"
     id="path20" />
  <path
     fill="#ffffff"
     d=" M 91.08 67.96 C 91.02 66.10 91.25 63.89 93.14 62.97 C 96.05 62.33 99.06 62.64 102.01 62.59 C 122.66 62.63 143.32 62.61 163.97 62.60 C 167.29 62.65 170.66 62.34 173.95 62.93 C 176.48 64.39 175.70 67.62 175.88 70.03 C 175.72 74.58 176.18 79.17 175.59 83.68 C 174.91 86.00 172.04 86.19 170.03 86.20 C 151.63 86.19 133.24 86.12 114.84 86.22 C 115.38 94.77 115.07 103.34 114.83 111.89 C 127.90 112.04 140.97 111.87 154.04 111.96 C 156.04 111.95 158.70 112.20 159.34 114.51 C 159.85 118.12 159.91 121.88 159.25 125.47 C 158.21 127.92 155.28 127.74 153.07 127.76 C 140.42 127.68 127.76 127.76 115.11 127.70 C 115.26 134.94 114.88 142.18 114.84 149.42 C 118.97 149.53 123.14 149.08 127.23 149.70 C 129.97 151.52 129.22 155.20 129.37 158.00 C 129.40 160.55 129.39 164.21 126.30 164.98 C 122.53 165.56 118.68 165.15 114.88 165.26 C 114.88 170.10 114.88 174.94 114.88 179.78 C 146.73 179.89 178.59 179.78 210.44 179.83 C 206.50 186.13 201.83 191.96 196.68 197.32 C 186.76 197.43 176.83 197.27 166.91 197.42 C 167.30 198.91 167.71 200.40 168.11 201.89 C 170.01 201.90 171.91 201.89 173.81 201.89 C 172.31 203.10 170.80 204.31 169.30 205.53 C 169.88 207.23 170.45 208.94 171.00 210.66 C 169.58 209.58 168.16 208.48 166.76 207.38 C 165.24 208.49 163.72 209.59 162.20 210.69 C 162.77 208.92 163.35 207.16 163.92 205.39 C 162.46 204.26 161.01 203.13 159.54 202.01 C 161.26 202.01 163.00 202.11 164.72 201.88 C 165.53 200.44 166.14 198.89 166.84 197.40 C 138.22 197.30 109.59 197.40 80.96 197.35 C 78.29 197.33 75.62 197.36 72.95 197.56 C 74.38 200.29 77.51 199.66 80.04 199.89 C 78.54 200.95 77.06 202.01 75.56 203.07 C 76.06 204.86 76.54 206.65 76.98 208.46 C 75.62 207.36 74.27 206.26 72.92 205.16 C 71.37 206.29 69.83 207.44 68.30 208.59 C 68.93 206.79 69.56 204.99 70.19 203.19 C 68.64 202.05 67.09 200.89 65.55 199.73 C 67.40 199.73 69.26 199.74 71.12 199.76 C 71.44 198.97 71.76 198.18 72.09 197.40 C 62.67 197.32 53.25 197.36 43.82 197.37 L 43.28 197.37 C 34.79 187.92 26.51 177.65 22.19 165.56 C 24.36 170.55 27.29 175.14 30.04 179.82 C 50.39 179.82 70.75 179.83 91.10 179.82 C 91.09 174.95 91.09 170.09 91.10 165.23 C 87.10 165.10 83.02 165.67 79.08 164.91 C 75.68 163.83 76.40 159.74 76.29 156.99 C 76.47 154.55 75.80 151.44 78.11 149.79 C 82.40 149.04 86.78 149.53 91.11 149.42 C 91.07 122.27 91.12 95.12 91.08 67.96 Z"
     id="path22" />
  <path
     fill="#ffffff"
     d=" M 199.93 71.70 C 200.52 70.08 201.14 68.46 201.78 66.85 C 202.23 68.47 202.68 70.09 203.17 71.71 C 205.08 71.72 207.00 71.72 208.93 71.73 C 207.39 72.84 205.85 73.96 204.30 75.05 C 204.83 76.86 205.37 78.67 205.86 80.50 C 204.49 79.40 203.15 78.28 201.81 77.15 C 200.27 78.25 198.74 79.36 197.20 80.46 C 197.77 78.68 198.35 76.92 198.93 75.15 C 197.39 74.02 195.87 72.88 194.36 71.72 C 196.21 71.70 198.07 71.71 199.93 71.70 Z"
     id="path24" />
  <path
     fill="#ffffff"
     d=" M 39.06 67.61 C 39.68 69.26 40.27 70.93 40.85 72.61 C 42.71 72.60 44.57 72.59 46.43 72.60 C 44.92 73.77 43.39 74.92 41.86 76.07 C 42.44 77.82 43.01 79.57 43.58 81.32 C 42.09 80.23 40.60 79.15 39.11 78.08 C 37.73 79.17 36.36 80.25 34.95 81.29 C 35.42 79.51 35.95 77.74 36.46 75.96 C 34.91 74.85 33.37 73.73 31.83 72.60 C 33.73 72.59 35.62 72.61 37.52 72.62 C 38.04 70.96 38.55 69.28 39.06 67.61 Z"
     id="path26" />
  <path
     fill="#ffffff"
     d=" M 211.12 89.58 C 211.73 91.22 212.40 92.84 213.14 94.43 C 214.85 94.45 216.56 94.48 218.27 94.52 C 216.86 95.64 215.43 96.75 214.03 97.88 C 214.61 99.62 215.17 101.36 215.73 103.11 C 214.27 101.99 212.82 100.87 211.37 99.75 C 209.92 100.82 208.46 101.89 206.98 102.93 C 207.54 101.25 208.12 99.57 208.70 97.89 C 207.22 96.75 205.74 95.63 204.28 94.49 C 206.10 94.47 207.92 94.47 209.75 94.45 C 210.21 92.83 210.67 91.21 211.12 89.58 Z"
     id="path28" />
  <path
     fill="#ffffff"
     d=" M 27.84 95.29 C 28.32 93.62 28.78 91.95 29.26 90.28 C 29.89 91.95 30.52 93.63 31.16 95.30 C 32.88 95.31 34.60 95.30 36.33 95.32 C 34.92 96.51 33.49 97.68 32.09 98.87 C 32.68 100.55 33.27 102.22 33.84 103.91 C 32.38 102.83 30.93 101.74 29.49 100.64 C 28.03 101.73 26.57 102.82 25.10 103.90 C 25.64 102.16 26.21 100.42 26.79 98.69 C 25.30 97.59 23.81 96.49 22.34 95.37 C 24.17 95.33 26.01 95.31 27.84 95.29 Z"
     id="path30" />
  <path
     fill="#ffffff"
     d=" M 26.59 114.57 C 27.31 116.11 27.97 117.66 28.65 119.21 C 30.40 119.21 32.16 119.20 33.91 119.21 C 32.42 120.36 30.92 121.50 29.43 122.65 C 30.06 124.39 30.69 126.13 31.31 127.87 C 29.79 126.79 28.28 125.69 26.76 124.59 C 25.33 125.68 23.90 126.77 22.46 127.85 C 22.96 126.06 23.49 124.28 23.99 122.48 C 22.54 121.39 21.09 120.29 19.65 119.18 C 21.50 119.18 23.35 119.19 25.20 119.20 C 25.65 117.65 26.11 116.11 26.59 114.57 Z"
     id="path32" />
  <path
     fill="#ffffff"
     d=" M 214.80 114.48 C 215.38 116.08 216.00 117.67 216.70 119.23 C 218.45 119.20 220.21 119.19 221.97 119.18 C 220.49 120.36 218.99 121.54 217.50 122.71 C 218.13 124.41 218.78 126.10 219.42 127.80 C 217.90 126.75 216.40 125.69 214.89 124.64 C 213.41 125.66 211.95 126.70 210.48 127.74 C 211.02 126.00 211.59 124.27 212.14 122.54 C 210.68 121.44 209.22 120.34 207.77 119.23 C 209.59 119.20 211.41 119.20 213.24 119.19 C 213.75 117.62 214.26 116.05 214.80 114.48 Z"
     id="path34" />
  <path
     fill="#ffffff"
     d=" M 28.95 138.66 C 29.42 140.28 29.99 141.85 30.59 143.42 C 32.44 143.45 34.29 143.46 36.14 143.49 C 34.66 144.66 33.18 145.82 31.70 146.98 C 32.27 148.71 32.85 150.43 33.43 152.15 C 31.95 151.10 30.47 150.04 28.99 148.99 C 27.52 150.05 26.05 151.12 24.58 152.18 C 25.16 150.45 25.75 148.72 26.32 146.98 C 24.81 145.80 23.30 144.63 21.79 143.44 C 23.64 143.46 25.49 143.49 27.34 143.52 C 27.87 141.90 28.41 140.28 28.95 138.66 Z"
     id="path36" />
  <path
     fill="#ffffff"
     d=" M 210.44 144.52 C 211.02 142.81 211.59 141.11 212.17 139.41 C 212.76 141.09 213.35 142.78 213.94 144.46 C 215.71 144.44 217.48 144.42 219.26 144.41 C 217.80 145.58 216.34 146.75 214.88 147.93 C 215.48 149.64 216.06 151.35 216.62 153.07 C 215.14 152.01 213.69 150.93 212.23 149.85 C 210.79 150.90 209.34 151.95 207.88 152.97 C 208.42 151.26 208.98 149.55 209.56 147.85 C 208.06 146.71 206.56 145.56 205.09 144.37 C 206.87 144.41 208.65 144.46 210.44 144.52 Z"
     id="path38" />
  <path
     fill="#ffffff"
     d=" M 36.97 165.30 C 37.64 163.70 38.28 162.10 38.92 160.50 C 39.38 162.10 39.84 163.70 40.30 165.31 C 42.10 165.32 43.89 165.33 45.69 165.37 C 44.25 166.55 42.79 167.70 41.34 168.86 C 42.00 170.56 42.67 172.27 43.32 173.97 C 41.78 172.86 40.26 171.74 38.74 170.61 C 37.27 171.73 35.81 172.86 34.33 173.97 C 34.87 172.16 35.43 170.37 35.98 168.57 C 34.59 167.48 33.18 166.43 31.77 165.38 C 33.50 165.35 35.24 165.33 36.97 165.30 Z"
     id="path40" />
  <path
     fill="#ffffff"
     d=" M 201.95 162.42 C 202.57 164.11 203.15 165.81 203.75 167.51 C 205.55 167.52 207.35 167.53 209.15 167.58 C 207.67 168.68 206.18 169.76 204.70 170.86 C 205.30 172.63 205.90 174.39 206.50 176.17 C 205.01 175.06 203.53 173.95 202.05 172.84 C 200.55 173.95 199.05 175.06 197.54 176.16 C 198.14 174.41 198.77 172.67 199.40 170.94 C 197.91 169.80 196.43 168.67 194.95 167.54 C 196.76 167.52 198.57 167.52 200.39 167.53 C 200.91 165.83 201.42 164.12 201.95 162.42 Z"
     id="path42" />
  <path
     fill="#ff0101"
     d=" M 51.78 184.54 C 52.17 183.01 52.67 181.51 53.72 180.30 C 54.09 181.74 54.43 183.19 54.76 184.64 C 56.72 184.63 58.68 184.62 60.63 184.61 C 59.12 185.80 57.59 186.95 56.06 188.10 C 56.61 189.80 57.20 191.50 57.76 193.21 C 56.21 192.23 54.68 191.21 53.14 190.22 C 51.76 191.29 50.37 192.37 48.96 193.41 C 49.51 191.63 50.10 189.86 50.67 188.09 C 49.10 186.96 47.55 185.80 46.00 184.65 C 47.93 184.62 49.85 184.60 51.78 184.54 Z"
     id="path44" />
  <path
     fill="#ff0101"
     d=" M 185.99 181.46 C 186.62 183.15 187.22 184.86 187.85 186.56 C 189.64 186.56 191.43 186.56 193.23 186.59 C 191.75 187.70 190.27 188.80 188.80 189.91 C 189.39 191.69 189.97 193.47 190.54 195.25 C 189.06 194.14 187.59 193.03 186.13 191.91 C 184.70 192.96 183.26 193.99 181.81 195.00 C 182.33 193.30 182.88 191.62 183.40 189.93 C 181.92 188.81 180.42 187.70 178.93 186.59 C 180.76 186.56 182.60 186.57 184.43 186.57 C 184.96 184.87 185.46 183.16 185.99 181.46 Z"
     id="path46" />
  <path
     fill="#ff0101"
     d=" M 43.82 197.37 C 53.25 197.36 62.67 197.32 72.09 197.40 C 71.76 198.18 71.44 198.97 71.12 199.76 C 69.26 199.74 67.40 199.73 65.55 199.73 C 67.09 200.89 68.64 202.05 70.19 203.19 C 69.56 204.99 68.93 206.79 68.30 208.59 C 69.83 207.44 71.37 206.29 72.92 205.16 C 74.27 206.26 75.62 207.36 76.98 208.46 C 76.54 206.65 76.06 204.86 75.56 203.07 C 77.06 202.01 78.54 200.95 80.04 199.89 C 77.51 199.66 74.38 200.29 72.95 197.56 C 75.62 197.36 78.29 197.33 80.96 197.35 C 109.59 197.40 138.22 197.30 166.84 197.40 C 166.14 198.89 165.53 200.44 164.72 201.88 C 163.00 202.11 161.26 202.01 159.54 202.01 C 161.01 203.13 162.46 204.26 163.92 205.39 C 163.35 207.16 162.77 208.92 162.20 210.69 C 163.72 209.59 165.24 208.49 166.76 207.38 C 168.16 208.48 169.58 209.58 171.00 210.66 C 170.45 208.94 169.88 207.23 169.30 205.53 C 170.80 204.31 172.31 203.10 173.81 201.89 C 171.91 201.89 170.01 201.90 168.11 201.89 C 167.71 200.40 167.30 198.91 166.91 197.42 C 176.83 197.27 186.76 197.43 196.68 197.32 C 185.24 207.93 171.99 216.79 157.28 222.16 C 134.00 230.67 107.71 231.09 84.36 222.61 C 69.30 217.11 55.35 208.55 43.82 197.37 Z"
     id="path48" />
  <path
     fill="#ffffff"
     d=" M 92.91 209.79 C 93.49 208.20 94.08 206.62 94.67 205.04 C 95.12 206.62 95.55 208.23 95.95 209.83 C 97.78 209.85 99.60 209.88 101.43 209.90 C 100.04 211.09 98.63 212.27 97.23 213.45 C 97.80 215.16 98.40 216.87 98.97 218.59 C 97.54 217.60 96.16 216.55 94.69 215.64 C 92.97 216.28 91.57 217.57 90.03 218.54 C 90.62 216.85 91.23 215.17 91.80 213.47 C 90.42 212.29 89.02 211.12 87.63 209.94 C 89.39 209.89 91.15 209.84 92.91 209.79 Z"
     id="path50" />
  <path
     fill="#ffffff"
     d=" M 141.52 210.85 C 142.04 209.15 142.57 207.45 143.13 205.77 C 143.68 207.44 144.21 209.12 144.72 210.82 C 146.58 210.82 148.45 210.81 150.32 210.82 C 148.87 211.96 147.41 213.09 145.93 214.20 C 146.48 215.99 147.06 217.77 147.61 219.57 C 146.09 218.46 144.59 217.32 143.11 216.18 C 141.65 217.37 140.18 218.55 138.71 219.71 C 139.30 217.87 139.92 216.04 140.52 214.20 C 139.00 213.09 137.49 211.97 135.99 210.83 C 137.83 210.82 139.67 210.84 141.52 210.85 Z"
     id="path52" />
  <path
     fill="#ffffff"
     d=" M 117.31 213.88 C 117.84 212.21 118.36 210.54 118.88 208.86 C 119.39 210.48 119.81 212.13 120.42 213.71 C 122.04 214.56 124.05 213.80 125.80 213.97 C 124.37 215.18 122.75 216.24 121.61 217.75 C 122.12 219.43 122.76 221.07 123.36 222.72 C 121.86 221.60 120.37 220.45 118.89 219.30 C 117.40 220.46 115.91 221.61 114.39 222.73 C 114.97 220.91 115.59 219.11 116.17 217.29 C 114.69 216.20 113.22 215.11 111.77 213.99 C 113.61 213.82 115.46 213.77 117.31 213.88 Z"
     id="path54" />
</svg>
